<svg width="354" height="887" viewBox="0 0 354 887" fill="none" xmlns="http://www.w3.org/2000/svg">
<path d="M4.06732 886.144C-63.4468 890.541 -100.182 801.506 -161.078 772.036C-211.377 747.694 -274.916 760.151 -321.145 728.762C-368.381 696.689 -412.702 649.866 -423.559 593.816C-434.606 536.787 -375.907 485.126 -379.57 427.153C-383.452 365.709 -463.683 315.168 -444.87 256.544C-426.788 200.202 -340.439 202.815 -295.296 164.551C-252.795 128.526 -239.799 59.2896 -187.986 38.8015C-136.462 18.4276 -79.8655 62.2323 -24.6596 57.5336C43.2058 51.7575 111.604 -24.5037 171.332 8.2195C231.032 40.9268 201.166 140.851 235.107 199.851C263.931 249.957 346.346 266.888 353.16 324.29C360.26 384.106 275.064 421.871 268.57 481.757C261.28 548.994 342.813 615.392 314.914 677.005C289.248 733.688 197.822 717.288 146.191 752.026C91.5482 788.79 69.7884 881.864 4.06732 886.144Z" fill="#6C35EA"/>
</svg>
