<svg width="578" height="275" viewBox="0 0 578 275" fill="none" xmlns="http://www.w3.org/2000/svg">
<path fill-rule="evenodd" clip-rule="evenodd" d="M490.071 96.5437C495.147 91.0522 502.273 87.912 509.751 87.8715L521.655 87.807C529.133 87.7665 536.293 90.8293 541.429 96.2655C546.564 101.702 549.215 109.024 548.749 116.488L547.11 142.751C548.482 146.383 549.186 150.239 549.207 154.147C549.256 163.292 545.583 171.657 539.284 177.797L539.271 177.81C532.629 184.275 524.258 187.106 516.241 187.15C508.221 187.193 500.012 184.463 493.405 178.395C493.16 178.169 492.919 177.939 492.682 177.705C487.754 172.83 484.538 166.656 483.39 159.916C484.89 160.182 486.473 160.311 488.136 160.302C488.901 160.297 489.642 160.266 490.361 160.206C492.331 160.042 494.131 159.67 495.761 159.088C498.386 158.152 500.57 156.675 502.314 154.657L496.971 148.926C496.544 149.341 496.104 149.719 495.649 150.058C494.837 150.663 493.981 151.146 493.081 151.507C491.718 152.026 490.141 152.291 488.349 152.3C487.621 152.304 486.927 152.264 486.269 152.179C485.085 152.026 484.014 151.729 483.058 151.288C483.212 149.598 483.497 147.926 483.909 146.286L504.614 142.164C504.605 140.361 504.39 138.683 503.971 137.13C503.558 135.597 502.945 134.186 502.132 132.897C500.781 130.661 499.034 128.888 496.89 127.577C496.506 127.342 496.109 127.121 495.7 126.916C495.158 126.636 494.605 126.385 494.04 126.162C491.791 125.275 489.354 124.839 486.728 124.853C485.644 124.859 484.592 124.938 483.574 125.091L482.97 116.844C482.423 109.386 484.994 102.035 490.071 96.5437ZM484.688 140.3L484.136 132.761C484.947 132.529 485.825 132.41 486.769 132.405C488.227 132.397 489.535 132.66 490.694 133.194C491.162 133.411 491.606 133.671 492.026 133.976C492.576 134.376 493.057 134.829 493.468 135.334C494.144 136.164 494.631 137.136 494.929 138.249L484.688 140.3ZM512.04 144.108L519.976 144.065L521.801 114.807L509.898 114.871L512.04 144.108ZM520.457 150.27C520.347 150.165 520.234 150.065 520.118 149.97C520.081 149.94 520.044 149.911 520.007 149.882C519.927 149.819 519.845 149.759 519.762 149.701C518.726 148.979 517.483 148.622 516.032 148.63C514.48 148.639 513.17 149.062 512.103 149.9C512.101 149.902 512.098 149.904 512.096 149.905C512.088 149.912 512.08 149.918 512.071 149.925C511.918 150.047 511.769 150.179 511.626 150.318C510.479 151.391 509.911 152.738 509.919 154.36C509.928 155.981 510.512 157.364 511.67 158.51C511.816 158.644 511.966 158.77 512.12 158.888C512.145 158.907 512.17 158.926 512.195 158.944C512.259 158.991 512.323 159.037 512.388 159.081C513.444 159.801 514.68 160.158 516.095 160.15C517.522 160.142 518.748 159.767 519.774 159.023C519.837 158.977 519.899 158.93 519.961 158.881C519.993 158.856 520.024 158.831 520.056 158.805C520.187 158.697 520.314 158.583 520.438 158.463C521.626 157.304 522.216 155.914 522.207 154.293C522.198 152.672 521.615 151.331 520.457 150.27Z" fill="white"/>
<path fill-rule="evenodd" clip-rule="evenodd" d="M461.795 159.932L461.609 125.501L451.625 125.555L451.717 142.579C451.717 142.643 451.717 142.707 451.717 142.771C451.713 143.773 451.629 144.695 451.465 145.537C451.144 147.193 450.515 148.536 449.579 149.566C448.136 151.11 446.221 151.889 443.831 151.902C443.292 151.904 442.783 151.87 442.306 151.798C441.703 148.827 441.408 145.823 441.392 142.827C441.35 135.052 443.183 127.224 447.355 120.033L447.394 119.964L447.42 119.921C451.471 113.013 457.2 107.414 464.274 103.54C471.37 99.6344 479.007 97.8942 486.581 97.8531C493.809 97.814 501.105 99.3489 507.95 102.856C515.159 106.505 520.978 111.968 525.11 118.721C529.761 126.2 531.571 134.33 531.613 142.018C531.634 145.964 530.801 149.746 529.272 153.168C529.644 159.938 527.478 166.829 522.743 172.309C513.138 183.426 500.092 187.237 488.281 187.301C480.889 187.341 473.196 185.943 465.875 182.332C465.784 182.287 465.692 182.241 465.601 182.195C458.464 178.573 452.259 173.145 447.829 165.889C446.699 164.038 445.728 162.141 444.909 160.211C445.834 160.015 446.726 159.734 447.584 159.369C449.414 158.549 450.987 157.388 452.301 155.888L452.323 159.984L461.795 159.932ZM479.246 147.214L479.24 147.216L479.168 147.23C479.243 147.405 479.323 147.575 479.407 147.74C479.757 148.433 480.182 149.046 480.68 149.581C480.967 149.888 481.278 150.169 481.613 150.425C481.64 150.445 481.666 150.464 481.693 150.484C481.972 150.691 482.268 150.88 482.581 151.052C483.809 151.707 485.24 152.104 486.875 152.244C487.269 152.277 487.674 152.296 488.092 152.3C488.177 152.301 488.262 152.301 488.348 152.3C490.14 152.291 491.717 152.026 493.079 151.507C494.137 151.084 495.132 150.492 496.067 149.731C496.16 149.656 496.252 149.578 496.344 149.499C496.401 149.451 496.457 149.401 496.513 149.351C496.667 149.214 496.819 149.072 496.97 148.926L502.313 154.657C501.593 155.489 500.799 156.229 499.931 156.878C499.57 157.146 499.197 157.399 498.811 157.637C497.959 158.16 497.045 158.606 496.068 158.975C496.027 158.991 495.986 159.006 495.944 159.021C493.741 159.835 491.224 160.261 488.391 160.299C488.306 160.3 488.221 160.301 488.135 160.302C487.035 160.308 485.971 160.253 484.942 160.139C483.846 160.017 482.791 159.827 481.776 159.569C481.723 159.556 481.67 159.542 481.617 159.528C480.572 159.254 479.571 158.907 478.613 158.487C478.584 158.474 478.554 158.461 478.524 158.448C478.286 158.342 478.051 158.232 477.819 158.117C474.824 156.598 472.509 154.498 470.873 151.819C470.71 151.553 470.556 151.283 470.409 151.009C469.08 148.53 468.408 145.754 468.391 142.68C468.389 142.236 468.4 141.798 468.425 141.365C468.591 138.516 469.352 135.921 470.71 133.58C471.752 131.802 473.039 130.284 474.569 129.025C474.843 128.799 475.124 128.582 475.414 128.374C475.447 128.35 475.48 128.326 475.514 128.302C476.07 127.907 476.654 127.542 477.268 127.208C479.469 125.992 481.884 125.246 484.51 124.972C485.233 124.897 485.972 124.857 486.727 124.853C488.725 124.842 490.615 125.092 492.395 125.604C493.541 125.933 494.642 126.37 495.698 126.916C496.056 127.095 496.404 127.286 496.742 127.488C498.953 128.807 500.749 130.61 502.131 132.897C502.514 133.505 502.853 134.14 503.147 134.802C503.208 134.938 503.266 135.075 503.323 135.213C503.419 135.448 503.51 135.686 503.596 135.928C503.674 136.148 503.747 136.371 503.816 136.596C504.305 138.194 504.569 139.93 504.608 141.804C504.611 141.923 504.612 142.044 504.613 142.164L479.246 147.214ZM485.815 132.45C485.699 132.461 485.583 132.474 485.468 132.489C484.209 132.65 483.086 133.044 482.099 133.671C481.787 133.868 481.489 134.089 481.205 134.334C481.193 134.343 481.182 134.353 481.17 134.363C480.987 134.522 480.809 134.691 480.637 134.87C479.752 135.789 479.105 136.903 478.697 138.212C478.693 138.227 478.688 138.241 478.684 138.256C478.376 139.258 478.208 140.374 478.178 141.603L494.928 138.249C494.866 138.017 494.795 137.791 494.717 137.572C494.698 137.518 494.678 137.465 494.658 137.412C494.139 136.048 493.294 134.927 492.124 134.049C492.097 134.029 492.069 134.009 492.042 133.989C492.036 133.985 492.03 133.98 492.024 133.976C492.006 133.963 491.987 133.949 491.969 133.936C491.907 133.892 491.845 133.849 491.782 133.807C490.745 133.11 489.564 132.673 488.24 132.496C487.768 132.432 487.277 132.402 486.768 132.405C486.442 132.406 486.125 132.422 485.815 132.45ZM512.039 144.108L519.975 144.065L521.8 114.807L509.896 114.871L512.039 144.108ZM519.467 149.51C518.493 148.916 517.348 148.623 516.031 148.63C514.239 148.64 512.77 149.203 511.624 150.318C510.478 151.391 509.909 152.738 509.918 154.36C509.927 155.981 510.51 157.364 511.669 158.51C511.851 158.677 512.039 158.832 512.233 158.973C513.323 159.766 514.609 160.158 516.094 160.15C517.843 160.141 519.291 159.578 520.437 158.463C521.625 157.304 522.215 155.914 522.206 154.293C522.197 152.672 521.614 151.331 520.456 150.27C520.149 149.978 519.819 149.724 519.467 149.51Z" fill="white"/>
<path fill-rule="evenodd" clip-rule="evenodd" d="M488.648 132.56C488.052 132.453 487.425 132.402 486.769 132.405C484.251 132.419 482.208 133.241 480.638 134.871C479.75 135.792 479.103 136.91 478.694 138.224C478.381 139.234 478.209 140.361 478.178 141.604L488.686 139.499L488.648 132.56ZM488.717 145.33L479.169 147.231C479.903 148.933 481.041 150.207 482.582 151.052C484.165 151.897 486.087 152.313 488.348 152.301C488.485 152.3 488.621 152.298 488.755 152.294L488.717 145.33ZM488.794 160.292C488.576 160.298 488.357 160.301 488.136 160.302C486.279 160.312 484.525 160.151 482.871 159.819C481.63 159.569 480.445 159.223 479.318 158.78C478.807 158.579 478.307 158.359 477.82 158.118C477.223 157.815 476.653 157.49 476.111 157.141C475.452 156.717 474.833 156.26 474.254 155.769C472.915 154.634 471.788 153.317 470.874 151.82C469.238 149.14 468.41 146.094 468.392 142.681C468.392 142.617 468.392 142.553 468.392 142.489C468.401 139.908 468.878 137.526 469.822 135.343C470.082 134.74 470.379 134.153 470.711 133.58C472.317 130.841 474.503 128.717 477.268 127.209C477.714 126.962 478.168 126.736 478.631 126.528C479.71 126.044 480.837 125.665 482.01 125.391C483.506 125.041 485.078 124.862 486.728 124.853C487.364 124.85 487.989 124.873 488.603 124.922C488.292 110.212 476.23 98.4219 461.463 98.5018L451.479 98.5559C448.893 98.5699 446.393 98.9471 444.029 99.6389C441.657 98.9728 439.154 98.6227 436.567 98.6367L426.584 98.6908C411.798 98.7709 399.853 110.721 399.731 125.459C400.44 125.541 401.12 125.663 401.77 125.826C404.384 126.48 406.515 127.791 408.164 129.759L408.143 125.791L417.678 125.739L417.932 172.587L408.912 172.636C409.859 173.807 410.898 174.951 412.034 176.057C420.84 184.627 431.824 187.608 441.785 187.554C444.33 187.54 446.897 187.309 449.456 186.834C450.446 186.938 451.451 186.989 452.47 186.984L461.942 186.933C476.685 186.853 488.604 174.972 488.794 160.292ZM461.796 159.933L461.609 125.501L451.625 125.556L451.718 142.579C451.719 142.908 451.713 143.228 451.698 143.539C451.673 144.053 451.626 144.544 451.556 145.012C451.272 146.912 450.613 148.43 449.579 149.567C448.861 150.336 448.024 150.916 447.07 151.305C446.265 151.633 445.376 151.826 444.403 151.884C444.346 151.887 444.289 151.89 444.232 151.893C444.1 151.898 443.967 151.901 443.832 151.902C443.013 151.907 442.266 151.825 441.591 151.656C440.082 151.281 438.931 150.475 438.137 149.238C437.453 148.174 437.034 146.792 436.879 145.092C436.837 144.625 436.814 144.135 436.811 143.62L436.714 125.636L426.73 125.69L426.835 145.146C426.851 148.072 427.297 150.584 428.172 152.683C428.696 153.939 429.373 155.048 430.205 156.008C430.415 156.251 430.636 156.484 430.866 156.708C432.004 157.816 433.313 158.685 434.792 159.314C435.518 159.622 436.284 159.873 437.092 160.067C438.485 160.401 440.001 160.563 441.639 160.554C442.405 160.55 443.151 160.496 443.878 160.394C444.501 160.305 445.109 160.181 445.704 160.02C446.347 159.846 446.974 159.629 447.585 159.37C449.415 158.549 450.987 157.389 452.302 155.888L452.324 159.984L461.796 159.933ZM407.942 171.383L407.861 156.577C406.336 158.306 404.437 159.503 402.167 160.168C403.426 163.986 405.283 167.8 407.942 171.383ZM400.375 152.527C402.401 152.297 404.117 151.454 405.522 149.998C406.726 148.718 407.488 147.135 407.807 145.249C407.927 144.544 407.984 143.797 407.98 143.008C407.964 140.107 407.12 137.807 405.446 136.11C403.91 134.512 402.019 133.654 399.772 133.534L399.836 145.292C399.848 147.59 400.007 150.025 400.375 152.527Z" fill="white"/>
<path fill-rule="evenodd" clip-rule="evenodd" d="M417.532 98.7398C432.444 98.6591 444.597 110.682 444.678 125.593L444.82 151.85C444.5 151.883 444.171 151.9 443.832 151.902C439.182 151.927 436.841 149.167 436.811 143.62L436.714 125.636L426.73 125.69L426.835 145.146C426.843 146.511 426.944 147.785 427.138 148.97C427.649 152.087 428.807 154.582 430.613 156.454C430.696 156.54 430.78 156.625 430.866 156.708C431.264 157.096 431.684 157.455 432.124 157.784C432.965 158.413 433.883 158.935 434.877 159.349C436.835 160.166 439.089 160.568 441.639 160.554C442.756 160.548 443.832 160.437 444.866 160.221L444.932 172.441C445.013 187.352 432.99 199.506 418.079 199.586L408.095 199.64C397.968 199.695 389.113 194.168 384.448 185.944C381.532 185.085 378.664 183.915 375.882 182.409C375.828 182.379 375.773 182.349 375.719 182.32C368.557 178.378 362.919 172.646 359.028 165.73C356.955 162.046 355.512 158.233 354.589 154.399L354.515 140.802C354.504 138.796 354.285 136.987 353.856 135.376C354.626 130.472 356.192 125.546 358.785 120.818C359.804 118.96 360.948 117.185 362.214 115.505C362.213 115.56 362.213 115.616 362.213 115.672C362.222 117.25 362.805 118.57 363.963 119.63C365.12 120.691 366.617 121.216 368.451 121.206C369.159 121.202 369.816 121.119 370.421 120.957C371.385 120.699 372.218 120.241 372.922 119.582C373.312 119.203 373.635 118.792 373.891 118.349C373.947 118.253 373.999 118.155 374.049 118.055C374.323 117.504 374.5 116.906 374.579 116.262C374.613 115.988 374.63 115.704 374.628 115.412C374.62 113.877 374.037 112.6 372.879 111.582C371.722 110.564 370.226 110.06 368.391 110.07C367.885 110.073 367.406 110.116 366.952 110.2C369.434 107.851 372.22 105.784 375.295 104.049C375.349 104.018 375.403 103.988 375.457 103.958C382.357 100.126 389.81 98.378 397.242 98.3378C399.807 98.3239 402.436 98.5197 405.07 98.9642C406.031 98.8553 407.007 98.7969 407.996 98.7915L417.532 98.7398ZM408.143 125.791L408.164 129.759C408.113 129.697 408.061 129.637 408.008 129.576C406.382 127.71 404.302 126.459 401.77 125.826C401.659 125.798 401.547 125.771 401.434 125.746C400.698 125.58 399.926 125.465 399.116 125.4C398.558 125.355 397.982 125.334 397.388 125.337C395.815 125.346 394.313 125.525 392.883 125.874C392.13 126.058 391.396 126.289 390.683 126.567C389.957 126.849 389.252 127.181 388.568 127.561C387.595 128.111 386.7 128.747 385.883 129.47C385.853 129.496 385.824 129.523 385.794 129.549C385.673 129.658 385.553 129.769 385.436 129.882C384.271 130.999 383.278 132.306 382.458 133.802C380.979 136.498 380.249 139.617 380.268 143.158C380.288 146.7 381.051 149.81 382.559 152.49C383.478 154.123 384.601 155.525 385.929 156.696C385.944 156.71 385.96 156.724 385.976 156.737C386.006 156.764 386.036 156.79 386.066 156.815C386.881 157.517 387.771 158.133 388.736 158.665C389.425 159.037 390.133 159.361 390.862 159.636C392.94 160.42 395.179 160.806 397.58 160.793C398.174 160.79 398.749 160.761 399.308 160.708C400.02 160.639 400.704 160.53 401.359 160.379C403.908 159.793 406.022 158.586 407.7 156.756C407.754 156.697 407.808 156.637 407.861 156.577L407.948 172.641L417.932 172.587L417.679 125.739L408.143 125.791ZM406.192 136.979C405.965 136.674 405.717 136.384 405.447 136.11C404.662 135.294 403.785 134.671 402.815 134.24C401.716 133.753 400.498 133.513 399.16 133.52C398.56 133.523 397.984 133.574 397.433 133.674C397.192 133.717 396.956 133.77 396.724 133.832C395.399 134.186 394.23 134.841 393.218 135.798C393.201 135.814 393.185 135.829 393.169 135.845C393.057 135.952 392.947 136.063 392.839 136.178C392.572 136.455 392.326 136.747 392.103 137.055C392.057 137.118 392.013 137.181 391.969 137.245C391.678 137.671 391.427 138.124 391.216 138.606C391.032 139.027 390.878 139.47 390.755 139.934C390.643 140.354 390.556 140.793 390.495 141.249C390.415 141.837 390.377 142.456 390.38 143.104C390.383 143.616 390.412 144.11 390.466 144.586C390.534 145.178 390.642 145.743 390.789 146.279C390.916 146.739 391.072 147.178 391.257 147.596C391.477 148.093 391.739 148.561 392.042 149C392.086 149.063 392.131 149.127 392.177 149.189C392.401 149.496 392.647 149.788 392.914 150.066C393.017 150.17 393.121 150.271 393.227 150.369C393.244 150.384 393.26 150.399 393.277 150.414C394.284 151.328 395.44 151.955 396.745 152.293C397.002 152.36 397.266 152.416 397.535 152.46C398.087 152.551 398.663 152.595 399.264 152.592C400.49 152.585 401.615 152.376 402.636 151.965C403.712 151.533 404.673 150.877 405.522 149.998C405.786 149.717 406.028 149.422 406.25 149.113C406.295 149.05 406.339 148.986 406.382 148.922C407.46 147.324 407.993 145.353 407.98 143.008C407.967 140.671 407.417 138.724 406.328 137.167C406.283 137.104 406.238 137.041 406.192 136.979ZM373.656 160.41L373.469 125.979L363.485 126.033L363.672 160.465L373.656 160.41Z" fill="white"/>
<path fill-rule="evenodd" clip-rule="evenodd" d="M400.42 124.35C401.242 121.396 401.643 118.34 401.627 115.266C401.576 105.987 397.633 97.3943 390.707 91.3044C383.669 85.1171 375.364 83.0314 368.244 83.07C360.83 83.1102 352.406 85.4876 345.468 91.982C338.796 98.2269 335.164 106.765 335.213 115.817C335.229 118.896 335.671 121.911 336.512 124.792C336.494 125.203 336.484 125.615 336.484 126.03C336.614 126.003 336.744 125.977 336.875 125.952C337.924 125.755 339.019 125.653 340.16 125.647C341.718 125.638 343.166 125.801 344.504 126.135C345.189 126.306 345.845 126.522 346.472 126.783C347.975 127.408 349.313 128.291 350.485 129.431C351.293 130.204 351.979 131.093 352.544 132.096C353.839 134.394 354.495 137.296 354.514 140.801L354.621 160.513L344.637 160.567L344.539 142.391C344.526 140.109 344.099 138.32 343.257 137.026C343.092 136.772 342.911 136.537 342.714 136.321C342.593 136.184 342.466 136.054 342.334 135.931C341.157 134.833 339.552 134.29 337.519 134.301C337.18 134.303 336.85 134.319 336.529 134.35L336.671 160.61C336.752 175.522 348.906 187.544 363.817 187.464L373.801 187.409C388.626 187.329 400.596 175.315 400.655 160.522C399.688 160.696 398.663 160.786 397.579 160.792C396.006 160.801 394.503 160.638 393.069 160.305C392.245 160.113 391.444 159.865 390.666 159.561C390.006 159.303 389.363 159.004 388.736 158.664C386.125 157.228 384.066 155.169 382.558 152.489C381.477 150.568 380.778 148.424 380.462 146.059C380.338 145.127 380.273 144.159 380.267 143.158C380.248 139.616 380.978 136.498 382.457 133.802C382.923 132.953 383.444 132.165 384.02 131.438C384.086 131.354 384.153 131.271 384.221 131.189C385.435 129.72 386.884 128.511 388.567 127.561C389.191 127.214 389.831 126.908 390.488 126.643C391.263 126.33 392.061 126.074 392.882 125.873C394.313 125.524 395.814 125.345 397.387 125.337C398.328 125.332 399.224 125.387 400.076 125.502C400.207 125.52 400.337 125.539 400.465 125.559C400.459 125.154 400.444 124.751 400.42 124.35ZM400.51 133.601C400.074 133.544 399.624 133.517 399.16 133.519C397.949 133.526 396.839 133.728 395.831 134.124C394.707 134.567 393.71 135.251 392.838 136.178C392.195 136.844 391.678 137.601 391.287 138.447C391.208 138.617 391.135 138.79 391.067 138.967C390.959 139.247 390.864 139.536 390.781 139.834C390.695 140.144 390.623 140.463 390.565 140.793C390.437 141.516 390.375 142.286 390.379 143.103C390.384 143.92 390.454 144.691 390.59 145.416C390.937 147.266 391.711 148.815 392.913 150.065C394.586 151.763 396.703 152.605 399.263 152.591C399.727 152.588 400.177 152.557 400.612 152.497L400.51 133.601ZM373.468 125.978L363.484 126.032L363.671 160.464L373.655 160.41L373.468 125.978ZM353.757 100.838C353.617 100.892 353.477 100.947 353.338 101.004L353.757 100.838ZM353.338 101.004C353.434 100.9 353.53 100.799 353.627 100.698C353.779 100.54 353.933 100.385 354.088 100.234L354.432 100.587C354.206 100.668 353.981 100.751 353.757 100.838M364.866 110.975C364.799 111.016 364.732 111.058 364.667 111.101C364.403 111.276 364.154 111.474 363.919 111.694C363.734 111.867 363.564 112.046 363.41 112.232C362.643 113.153 362.245 114.236 362.214 115.479C362.213 115.543 362.212 115.607 362.212 115.671C362.22 116.995 362.631 118.137 363.447 119.097C363.604 119.281 363.775 119.459 363.962 119.63M364.866 110.975C365.85 110.379 367.025 110.077 368.39 110.07C369.765 110.062 370.95 110.343 371.945 110.913C372.277 111.104 372.588 111.326 372.878 111.581C373.065 111.745 373.236 111.916 373.393 112.093C374.209 113.017 374.62 114.123 374.627 115.412C374.627 115.476 374.627 115.54 374.626 115.604C374.597 116.918 374.199 118.057 373.431 119.021C373.276 119.215 373.106 119.401 372.922 119.581C372.628 119.856 372.313 120.095 371.975 120.3C370.991 120.896 369.816 121.198 368.45 121.205C367.165 121.212 366.045 120.956 365.091 120.438L363.464 122.288" fill="white"/>
<path fill-rule="evenodd" clip-rule="evenodd" d="M381.621 160.367C381.702 175.278 369.68 187.432 354.768 187.513L344.784 187.567C342.14 187.581 339.582 187.215 337.162 186.519C334.751 187.241 332.197 187.635 329.552 187.649L319.569 187.704C304.657 187.784 292.503 175.762 292.423 160.85L292.421 160.603C295.275 159.59 297.609 157.847 299.426 155.372L299.455 160.812L309.503 160.758L309.26 115.958L298.892 116.014L299.029 141.23C299.05 145.027 298.127 147.912 296.26 149.885C295.176 151.006 293.881 151.804 292.376 152.28L292.236 126.419C292.155 111.507 304.178 99.3536 319.09 99.2728L328.625 99.2212C329.75 99.2151 330.86 99.2779 331.949 99.4056C334.656 98.901 337.357 98.6619 340.014 98.6475C350.047 98.5931 360.703 101.745 369.236 110.004C369.275 110.041 369.313 110.078 369.351 110.115C369.329 110.113 369.308 110.11 369.287 110.108C369.193 110.1 369.099 110.092 369.004 110.087C368.804 110.074 368.6 110.069 368.391 110.07C366.556 110.08 365.066 110.621 363.919 111.694C362.773 112.767 362.204 114.093 362.213 115.671C362.216 116.142 362.269 116.589 362.373 117.013C362.387 117.066 362.4 117.118 362.415 117.171C362.551 117.656 362.755 118.11 363.028 118.533C363.273 118.914 363.574 119.27 363.931 119.601C363.941 119.611 363.952 119.62 363.962 119.63C365.12 120.69 366.616 121.216 368.451 121.206C370.286 121.196 371.776 120.654 372.922 119.582C373.841 118.687 374.388 117.617 374.565 116.371C378.874 122.835 380.749 129.93 381.317 136.378C380.852 137.719 380.542 139.147 380.386 140.661C380.303 141.469 380.264 142.301 380.268 143.158C380.283 145.814 380.716 148.228 381.567 150.399L381.621 160.367ZM363.485 126.033L363.672 160.464L373.656 160.41L373.469 125.979L363.485 126.033ZM328.772 126.221L319.236 126.272L319.422 160.704L329.406 160.65L329.314 143.626C329.312 143.229 329.322 142.845 329.345 142.474C329.378 141.935 329.438 141.422 329.524 140.937C329.838 139.169 330.502 137.757 331.516 136.702C332.23 135.94 333.062 135.359 334.013 134.96C334.812 134.625 335.695 134.418 336.661 134.338C336.714 134.334 336.766 134.33 336.819 134.327C337.048 134.311 337.281 134.303 337.52 134.302C338.52 134.296 339.417 134.425 340.21 134.688C341.209 135.019 342.044 135.564 342.715 136.321C342.886 136.509 343.045 136.711 343.192 136.927C343.208 136.951 343.224 136.975 343.24 136.999C343.894 137.991 344.301 139.277 344.461 140.856C344.51 141.34 344.537 141.852 344.539 142.392L344.638 160.567L354.622 160.513L354.515 140.802C354.5 137.985 354.073 135.558 353.234 133.52C352.705 132.236 352.012 131.106 351.156 130.132C350.945 129.892 350.725 129.661 350.494 129.44C350.491 129.437 350.488 129.434 350.485 129.431C350.449 129.396 350.412 129.361 350.376 129.326C349.169 128.178 347.79 127.299 346.238 126.688C345.683 126.47 345.105 126.285 344.504 126.136C343.167 125.801 341.719 125.639 340.161 125.647C339.235 125.652 338.339 125.72 337.474 125.851C336.916 125.935 336.371 126.046 335.838 126.183C335.102 126.371 334.391 126.61 333.703 126.898C331.745 127.677 330.108 128.795 328.793 130.253L328.772 126.221Z" fill="white"/>
<path fill-rule="evenodd" clip-rule="evenodd" d="M309.113 88.9585C324.025 88.8777 336.178 100.9 336.259 115.812L336.315 126.068C335.409 126.271 334.538 126.548 333.703 126.898C331.744 127.676 330.108 128.795 328.793 130.253L328.771 126.221L319.235 126.272L319.422 160.704L329.406 160.65L329.313 143.626C329.297 140.554 330.031 138.246 331.516 136.702C332.765 135.367 334.38 134.589 336.36 134.367L336.502 160.611C336.583 175.523 324.56 187.676 309.649 187.757L299.601 187.811C298.368 187.818 297.154 187.742 295.964 187.588C292.689 188.292 289.355 188.635 286.037 188.653C274.616 188.715 262.557 184.908 253.451 174.871C253.398 174.812 253.345 174.753 253.291 174.693C253.264 174.662 253.236 174.631 253.209 174.6C249.615 170.529 247.078 166.095 245.335 161.572C248.351 161.373 251.081 160.627 253.525 159.333C254.189 158.972 254.818 158.579 255.414 158.156C257.379 156.761 258.978 155.029 260.211 152.96C261.818 150.264 262.612 147.209 262.593 143.795C262.591 143.341 262.574 142.893 262.543 142.452C262.535 142.345 262.527 142.238 262.518 142.132C262.279 139.384 261.477 136.893 260.112 134.657C258.476 131.977 256.225 129.899 253.358 128.421C252.993 128.227 252.621 128.046 252.243 127.877C249.657 126.722 246.782 126.153 243.618 126.17C243.024 126.173 242.44 126.197 241.866 126.241L241.813 116.323C241.732 101.412 253.755 89.2584 268.666 89.1776L279.034 89.1214C282.512 89.1026 285.84 89.7422 288.9 90.9234C291.947 89.7092 295.267 89.0335 298.746 89.0147L309.113 88.9585ZM243.002 153.411C242.274 149.695 241.974 146.028 241.955 142.563L241.911 134.52C242.469 134.418 243.053 134.365 243.662 134.362C246.222 134.348 248.317 135.211 249.948 136.952C251.209 138.231 251.999 139.852 252.319 141.815C252.339 141.938 252.357 142.062 252.373 142.187C252.387 142.292 252.399 142.399 252.411 142.506C252.455 142.939 252.479 143.387 252.481 143.85C252.484 144.297 252.466 144.73 252.429 145.15C252.225 147.455 251.423 149.352 250.023 150.839C248.411 152.555 246.325 153.42 243.765 153.433C243.506 153.435 243.252 153.427 243.002 153.411ZM268.812 116.177L268.954 142.417C268.956 142.673 268.96 142.926 268.966 143.177C269.096 148.299 270.27 152.413 272.486 155.518C272.787 155.94 273.108 156.344 273.448 156.729C273.637 156.937 273.831 157.14 274.03 157.335C274.091 157.396 274.153 157.456 274.216 157.515C275.893 159.109 277.885 160.243 280.193 160.916C281.916 161.419 283.816 161.665 285.891 161.653C286.915 161.648 287.896 161.582 288.834 161.455C289.82 161.322 290.76 161.121 291.651 160.854C294.857 159.893 297.448 158.066 299.425 155.372L299.454 160.812L309.502 160.757L309.26 115.958L298.892 116.014L299.028 141.23C299.03 141.468 299.027 141.703 299.021 141.934C298.929 145.386 298.009 148.036 296.259 149.885C295.631 150.535 294.932 151.076 294.162 151.509C292.645 152.362 290.853 152.794 288.787 152.806C287.726 152.811 286.744 152.697 285.841 152.462C284.547 152.125 283.416 151.541 282.448 150.71C282.245 150.536 282.049 150.351 281.86 150.155C281.717 149.998 281.579 149.835 281.447 149.665C281.418 149.627 281.389 149.589 281.36 149.55C280.063 147.811 279.384 145.415 279.324 142.361C279.322 142.255 279.321 142.148 279.321 142.041L279.18 116.121L268.812 116.177Z" fill="white"/>
<path fill-rule="evenodd" clip-rule="evenodd" d="M240.851 152.348C240.805 152.323 240.757 152.297 240.71 152.27C240.157 151.958 239.522 151.518 238.881 150.926C238.799 150.851 238.719 150.775 238.641 150.698L239.69 148.721L244.98 143.634L247.726 148.677L247.729 148.683L248.795 150.643C248.718 150.72 248.639 150.798 248.558 150.874C247.867 151.526 247.182 151.997 246.6 152.319C246.578 152.332 246.556 152.343 246.534 152.355C246.513 152.367 246.491 152.378 246.469 152.389C245.884 152.689 245.303 152.896 244.779 153.022C244.228 153.155 243.865 153.169 243.764 153.169C243.665 153.17 243.281 153.16 242.693 153.024C242.171 152.904 241.587 152.706 240.988 152.416C240.943 152.394 240.897 152.372 240.851 152.348ZM248.88 150.557L245.136 143.483L250.079 138.731C250.155 138.843 250.227 138.956 250.295 139.068C250.531 139.455 250.741 139.856 250.924 140.266C251.144 140.759 251.324 141.264 251.461 141.769C251.708 142.681 251.767 143.409 251.77 143.854C251.772 144.299 251.721 145.028 251.483 145.942C251.352 146.448 251.177 146.955 250.963 147.45C250.785 147.862 250.579 148.266 250.347 148.655C250.272 148.781 250.193 148.908 250.109 149.035C250.069 149.095 250.028 149.156 249.986 149.216C249.773 149.523 249.535 149.831 249.272 150.132C249.272 150.132 249.272 150.132 249.272 150.132C249.147 150.275 249.016 150.417 248.88 150.557ZM249.364 151.471C249.337 151.494 249.31 151.517 249.283 151.539C247.789 152.79 245.95 153.422 243.765 153.433C241.575 153.445 239.709 152.831 238.168 151.59C238.127 151.556 238.085 151.522 238.044 151.487C237.828 151.307 237.618 151.114 237.416 150.908C237.149 150.63 236.903 150.338 236.678 150.031C236.584 149.903 236.494 149.772 236.408 149.638C236.086 149.143 235.815 148.611 235.595 148.044C235.128 146.839 234.89 145.472 234.882 143.945C234.874 142.412 235.098 141.044 235.557 139.842C235.796 139.216 236.098 138.634 236.464 138.097C236.466 138.093 236.468 138.09 236.471 138.087C236.729 137.709 237.019 137.353 237.34 137.02C237.552 136.795 237.772 136.584 237.999 136.387C238.011 136.376 238.024 136.365 238.037 136.354C239.573 135.038 241.448 134.374 243.662 134.362C245.85 134.35 247.698 134.978 249.207 136.248C249.234 136.271 249.261 136.293 249.288 136.317C249.516 136.513 249.736 136.725 249.948 136.952C250.218 137.226 250.467 137.515 250.694 137.821C250.74 137.883 250.785 137.946 250.829 138.009C251.204 138.545 251.515 139.126 251.762 139.755C252.234 140.952 252.473 142.317 252.482 143.85C252.49 145.377 252.267 146.746 251.812 147.956C251.569 148.604 251.26 149.207 250.884 149.764C250.841 149.828 250.796 149.892 250.751 149.955C250.53 150.264 250.287 150.559 250.023 150.839C249.812 151.065 249.592 151.275 249.364 151.471ZM256.507 130.487C256.568 130.536 256.628 130.587 256.687 130.637C258.032 131.779 259.173 133.119 260.112 134.657C261.748 137.336 262.575 140.382 262.593 143.795C262.612 147.208 261.818 150.264 260.211 152.96C259.264 154.55 258.1 155.941 256.721 157.133C256.719 157.134 256.718 157.136 256.716 157.137C255.757 157.965 254.693 158.697 253.525 159.333C250.675 160.841 247.436 161.606 243.81 161.625C240.183 161.645 236.915 160.916 234.006 159.438C232.866 158.834 231.824 158.138 230.879 157.351C230.85 157.326 230.82 157.302 230.791 157.277C229.397 156.1 228.217 154.72 227.251 153.139C225.616 150.46 224.788 147.413 224.77 144C224.751 140.587 225.546 137.532 227.152 134.835C228.095 133.252 229.253 131.874 230.624 130.7C230.653 130.676 230.682 130.651 230.711 130.626C231.654 129.831 232.696 129.131 233.838 128.527C236.731 126.975 239.991 126.189 243.618 126.17C247.244 126.15 250.491 126.901 253.358 128.421C254.507 129.013 255.556 129.702 256.507 130.487ZM221.142 104.698C228.291 100.878 235.934 99.211 243.471 99.1701C250.976 99.1295 258.656 100.701 265.868 104.494C272.947 108.174 278.894 113.607 283.156 120.586C287.575 127.824 289.55 135.765 289.593 143.649C289.61 146.704 289.336 149.771 288.742 152.806C285.862 152.812 283.568 151.928 281.861 150.155C280.589 148.768 279.795 146.874 279.478 144.473C279.445 144.222 279.417 143.966 279.394 143.704C279.348 143.172 279.324 142.618 279.321 142.041L279.18 116.121L268.812 116.177L268.955 142.417C268.957 142.872 268.967 143.32 268.986 143.761C269.217 149.298 270.704 153.621 273.448 156.729C274.327 157.698 275.304 158.524 276.379 159.207C278.978 160.858 282.148 161.674 285.891 161.653C285.934 161.653 285.977 161.653 286.02 161.652C285.274 163.391 284.405 165.104 283.406 166.78C279.234 173.783 273.388 179.262 266.434 183.047C266.341 183.097 266.249 183.147 266.156 183.196C259.001 186.983 251.387 188.585 243.956 188.625C236.517 188.665 228.932 187.144 221.78 183.512C221.637 183.439 221.496 183.366 221.355 183.291C214.388 179.596 208.503 174.209 204.258 167.292C207.412 166.393 210.077 164.881 212.253 162.756C212.368 162.645 212.481 162.533 212.593 162.419C212.831 162.176 213.061 161.925 213.283 161.668C216.328 158.138 217.834 153.328 217.801 147.238L217.635 116.454L207.267 116.511L207.342 130.462C207.363 134.26 206.44 137.102 204.573 138.989C202.872 140.708 200.62 141.652 197.814 141.82C198.123 134.703 200.044 127.584 203.957 121.015C208.157 113.966 214.071 108.455 221.142 104.698ZM198.211 150.34C198.619 153.285 199.318 156.209 200.332 159.074C202.171 158.619 203.638 157.812 204.732 156.653C206.556 154.723 207.458 151.774 207.436 147.806L207.421 145.054C205.109 147.927 202.039 149.689 198.211 150.34ZM249.954 138.549C249.741 138.246 249.502 137.944 249.24 137.65C249.234 137.644 249.228 137.637 249.223 137.631C249.096 137.49 248.964 137.35 248.826 137.213C248.797 137.184 248.769 137.156 248.74 137.128C248.688 137.078 248.636 137.028 248.583 136.978C247.884 136.326 247.203 135.875 246.656 135.585L243.803 140.965L245.072 143.361L249.954 138.549ZM244.916 143.515L239.75 148.606L243.667 141.221L244.916 143.515ZM243.455 140.832L239.263 149.087L238.151 150.183C237.888 149.887 237.649 149.586 237.435 149.284C237.347 149.16 237.263 149.035 237.184 148.911C237.144 148.85 237.105 148.788 237.068 148.727C236.832 148.341 236.622 147.939 236.439 147.529C236.22 147.036 236.04 146.531 235.903 146.026C235.655 145.115 235.596 144.387 235.594 143.941C235.591 143.496 235.643 142.768 235.88 141.854C236.012 141.347 236.186 140.84 236.4 140.345C236.579 139.933 236.784 139.529 237.016 139.14C237.081 139.03 237.15 138.92 237.222 138.81C237.225 138.807 237.227 138.803 237.229 138.8C237.469 138.434 237.746 138.067 238.056 137.711C238.059 137.707 238.062 137.704 238.064 137.701C238.192 137.555 238.326 137.411 238.465 137.269C238.479 137.255 238.492 137.242 238.505 137.228C238.571 137.162 238.638 137.097 238.706 137.032C239.398 136.372 240.073 135.914 240.617 135.618L243.455 140.832ZM243.591 140.564L246.232 135.365C245.622 135.055 245.028 134.855 244.517 134.741C244.017 134.629 243.71 134.625 243.663 134.626C243.619 134.626 243.292 134.633 242.758 134.759C242.211 134.888 241.565 135.114 240.895 135.469L243.591 140.564ZM238.159 150.192C238.272 150.319 238.389 150.444 238.511 150.568L239.219 149.174L238.159 150.192Z" fill="white"/>
<path fill-rule="evenodd" clip-rule="evenodd" d="M217.489 89.4553C232.4 89.3745 244.554 101.397 244.635 116.309L244.688 126.187C244.335 126.174 243.978 126.168 243.618 126.17C240.196 126.189 237.1 126.889 234.331 128.272C234.166 128.355 234.002 128.44 233.839 128.527C232.839 129.057 231.915 129.659 231.068 130.334C230.843 130.514 230.623 130.699 230.408 130.89C229.131 132.022 228.046 133.337 227.153 134.836C225.546 137.532 224.752 140.587 224.77 144.001C224.772 144.324 224.781 144.644 224.797 144.961C224.837 145.726 224.918 146.472 225.042 147.199C225.072 147.371 225.103 147.541 225.137 147.711C225.529 149.662 226.234 151.472 227.252 153.139C227.333 153.272 227.415 153.403 227.499 153.533C228.936 155.753 230.814 157.557 233.133 158.947C233.418 159.117 233.709 159.281 234.006 159.439C236.697 160.806 239.695 161.532 243 161.618C241.045 168.907 237.333 176.055 231.062 182.128C221.086 191.837 208.515 195.217 196.878 195.28C190.597 195.315 184.204 194.472 177.943 192.415C171.846 190.454 165.909 187.382 160.646 182.877C154.396 177.527 151.102 169.817 151.204 162.002C152.075 162.081 152.97 162.118 153.89 162.113C155.91 162.102 157.771 161.897 159.474 161.498C162.814 160.715 165.547 159.185 167.672 156.909C167.806 156.765 167.938 156.618 168.068 156.468L162.725 150.737C161.826 151.613 160.866 152.318 159.844 152.853C159.514 153.026 159.178 153.181 158.835 153.318C157.663 153.765 156.331 154.023 154.841 154.093C154.599 154.104 154.353 154.11 154.103 154.112C153.554 154.115 153.024 154.092 152.515 154.045C152.818 153.11 153.175 152.186 153.585 151.276C153.089 150.049 152.654 148.814 152.274 147.578L170.368 143.975C170.349 140.391 169.522 137.302 167.886 134.709C167.456 133.996 166.985 133.33 166.474 132.711C166.281 132.478 166.082 132.251 165.878 132.031C165.675 131.813 165.466 131.6 165.252 131.395C164.138 130.328 162.872 129.438 161.454 128.727C161.095 128.542 160.731 128.369 160.362 128.209C157.957 127.163 155.33 126.649 152.482 126.664C151.63 126.669 150.798 126.719 149.986 126.814L149.932 116.822C149.851 101.91 161.874 89.7565 176.785 89.6758L187.153 89.6196C190.68 89.6005 194.052 90.2584 197.147 91.4715C200.229 90.225 203.594 89.5305 207.121 89.5114L217.489 89.4553ZM150.919 142.015C150.452 139.473 150.186 136.958 150.076 134.521C150.835 134.322 151.65 134.221 152.523 134.216C154.571 134.205 156.323 134.729 157.78 135.787C158.904 136.605 159.737 137.639 160.279 138.892C160.439 139.262 160.574 139.651 160.683 140.06L150.919 142.015ZM176.932 116.675L177.014 131.971C177.04 136.748 178.003 140.644 179.902 143.66C180.225 144.172 180.574 144.659 180.951 145.12C180.972 145.146 180.993 145.172 181.014 145.198C181.213 145.438 181.42 145.672 181.634 145.898C181.817 146.087 182.004 146.269 182.196 146.446C182.791 146.996 183.43 147.492 184.113 147.933C184.876 148.426 185.693 148.852 186.565 149.209C187.282 149.504 188.036 149.752 188.826 149.955C189.668 150.171 190.552 150.334 191.477 150.446C191.547 150.455 191.618 150.463 191.688 150.471C192.672 150.581 193.703 150.633 194.78 150.627C195.325 150.624 195.859 150.603 196.379 150.564C196.465 150.557 196.55 150.55 196.635 150.543C196.764 150.531 196.892 150.519 197.019 150.505C197.376 150.467 197.727 150.42 198.072 150.364C198.074 150.364 198.076 150.363 198.078 150.363C198.668 150.267 199.24 150.145 199.794 149.997C199.833 149.986 199.872 149.976 199.91 149.965C201.607 149.498 203.135 148.784 204.494 147.823C204.727 147.658 204.955 147.486 205.178 147.307C205.992 146.653 206.74 145.902 207.422 145.055L207.437 147.807C207.455 151.191 206.802 153.833 205.478 155.735C205.467 155.751 205.456 155.767 205.444 155.783C205.225 156.093 204.988 156.383 204.733 156.653C203.054 158.432 200.499 159.381 197.068 159.502C196.941 159.506 196.813 159.509 196.684 159.512C196.599 159.513 196.514 159.514 196.428 159.514C195.888 159.517 195.354 159.504 194.828 159.474C193.126 159.378 191.495 159.111 189.933 158.673C189.638 158.591 189.345 158.502 189.055 158.407C189.021 158.396 188.987 158.385 188.954 158.374C187.134 157.768 185.414 156.923 183.791 155.837C183.248 155.473 182.715 155.082 182.193 154.663L178.203 162.365C180.432 164.273 183.128 165.731 186.291 166.737C186.584 166.835 186.88 166.927 187.179 167.015C189.57 167.721 192.135 168.131 194.875 168.247C195.402 168.27 195.936 168.281 196.475 168.281C196.561 168.282 196.646 168.281 196.731 168.281C196.86 168.28 196.988 168.279 197.115 168.277C200.313 168.225 203.169 167.744 205.682 166.833C207.981 166.001 209.993 164.809 211.719 163.257C211.721 163.256 211.722 163.255 211.723 163.254C211.903 163.092 212.08 162.926 212.254 162.757C214.841 160.26 216.524 157.01 217.301 153.008C217.379 152.608 217.448 152.2 217.507 151.785C217.69 150.511 217.788 149.166 217.801 147.75C217.802 147.581 217.803 147.41 217.802 147.238L217.635 116.455L207.267 116.511L207.343 130.463C207.344 130.701 207.342 130.936 207.335 131.167C207.244 134.613 206.323 137.221 204.573 138.99C203.847 139.723 203.021 140.315 202.095 140.767C200.637 141.476 198.929 141.837 196.972 141.847C196.843 141.848 196.715 141.847 196.588 141.844C196.502 141.843 196.417 141.84 196.332 141.837C196.116 141.829 195.903 141.815 195.694 141.797C195.69 141.797 195.686 141.797 195.682 141.796C195.356 141.768 195.039 141.727 194.731 141.675C194.692 141.668 194.653 141.661 194.614 141.654C194.507 141.635 194.401 141.614 194.296 141.592C193.835 141.493 193.395 141.367 192.976 141.212C192.156 140.908 191.418 140.496 190.762 139.975C190.464 139.738 190.182 139.479 189.918 139.197C189.732 139 189.557 138.791 189.391 138.572C189.362 138.533 189.333 138.494 189.304 138.455C188.719 137.648 188.267 136.704 187.948 135.621C187.627 134.527 187.441 133.291 187.392 131.915C187.384 131.705 187.38 131.492 187.379 131.275L187.299 116.619L176.932 116.675ZM244.733 134.41L244.801 147.092C244.813 149.163 244.719 151.275 244.499 153.406C244.259 153.423 244.015 153.433 243.766 153.434C241.206 153.448 239.089 152.606 237.416 150.908C236.411 149.863 235.705 148.608 235.297 147.144C235.027 146.17 234.888 145.104 234.882 143.946C234.866 141.045 235.686 138.736 237.341 137.02C238.995 135.262 241.102 134.376 243.662 134.362C244.029 134.36 244.385 134.376 244.733 134.41Z" fill="white"/>
<path fill-rule="evenodd" clip-rule="evenodd" d="M120.566 160.701C121.286 160.486 121.964 160.24 122.6 159.964C123.492 159.576 124.302 159.129 125.03 158.62C125.848 158.046 126.555 157.408 127.153 156.707C128.792 154.784 129.604 152.384 129.589 149.508C129.579 147.641 129.241 145.978 128.576 144.521C128.335 143.993 128.05 143.492 127.723 143.018C127.612 142.857 127.496 142.699 127.375 142.544C125.914 140.631 123.901 139.277 121.337 138.48C123.209 137.489 124.652 136.137 125.667 134.425C126.492 133.089 126.991 131.613 127.165 129.996C127.168 129.977 127.169 129.958 127.171 129.939C127.215 129.516 127.236 129.084 127.236 128.641C127.236 128.625 127.236 128.609 127.235 128.592C127.219 125.617 126.192 123.162 124.153 121.227C123.736 120.831 123.276 120.457 122.773 120.104C120.993 118.836 118.737 117.961 116.005 117.479C119.742 112.505 124.471 108.395 130.03 105.351C137.126 101.445 144.763 99.7047 152.337 99.6637C159.564 99.6245 166.86 101.159 173.705 104.666C180.914 108.314 186.733 113.777 190.865 120.53C195.117 127.368 196.995 134.75 197.318 141.841C197.204 141.844 197.089 141.846 196.973 141.847C193.943 141.863 191.592 140.98 189.918 139.197C188.245 137.414 187.398 134.773 187.379 131.274L187.3 116.619L176.932 116.675L177.015 131.97C177.022 133.253 177.096 134.472 177.238 135.627C177.296 136.099 177.366 136.561 177.446 137.012C177.924 139.689 178.8 141.992 180.072 143.922C180.256 144.202 180.449 144.474 180.65 144.738C180.959 145.143 181.287 145.529 181.634 145.898C182.917 147.219 184.422 148.263 186.149 149.031C188.498 150.075 191.259 150.606 194.431 150.626C194.547 150.627 194.663 150.627 194.78 150.627C195.389 150.623 195.982 150.597 196.56 150.549C196.176 152.078 195.662 153.559 195.028 154.979C195.11 156.478 195.068 157.983 194.901 159.477C194.131 159.436 193.375 159.36 192.634 159.249C189.093 158.719 185.879 157.393 182.989 155.273C182.721 155.076 182.456 154.873 182.194 154.663L178.204 162.364C180.213 164.085 182.603 165.439 185.371 166.426C185.673 166.534 185.98 166.638 186.291 166.737C188.228 167.379 190.283 167.821 192.457 168.063C191.437 170.206 190.118 172.246 188.498 174.12C178.893 185.236 165.848 189.048 154.037 189.112C146.645 189.152 138.952 187.754 131.631 184.143C131.539 184.097 131.448 184.052 131.357 184.005C124.22 180.384 118.015 174.955 113.585 167.7C112.418 165.789 111.422 163.83 110.586 161.835L111.735 161.829C115.166 161.81 118.109 161.434 120.566 160.701ZM108.151 154.04L110.925 154.025C113.656 154.01 115.701 153.551 117.062 152.648C117.45 152.398 117.784 152.11 118.064 151.786C118.113 151.728 118.161 151.67 118.207 151.61C118.843 150.787 119.158 149.742 119.151 148.476C119.144 147.214 118.82 146.168 118.179 145.338C117.966 145.062 117.717 144.81 117.433 144.581C117.281 144.459 117.118 144.343 116.946 144.235C115.566 143.366 113.539 142.938 110.865 142.953L107.167 142.973C107.151 143.528 107.145 144.083 107.148 144.637C107.165 147.778 107.488 150.929 108.151 154.04ZM108.009 135.416L109.032 135.411C111.592 135.397 113.531 134.938 114.849 134.035C116.167 133.132 116.821 131.806 116.811 130.057C116.802 128.307 116.133 127.01 114.806 126.163C113.945 125.587 112.825 125.2 111.445 125.003C109.836 128.383 108.705 131.877 108.009 135.416ZM165.686 158.688C166.555 158.04 167.349 157.3 168.069 156.467L162.725 150.736C162.575 150.883 162.423 151.025 162.269 151.162C162.213 151.212 162.156 151.261 162.1 151.31C162.008 151.389 161.916 151.466 161.823 151.542C160.888 152.302 159.892 152.894 158.835 153.317C157.473 153.837 155.896 154.101 154.104 154.111C154.018 154.111 153.932 154.111 153.848 154.11C153.43 154.107 153.025 154.088 152.631 154.054C150.996 153.915 149.564 153.517 148.337 152.862C148.024 152.691 147.728 152.501 147.449 152.295C147.422 152.275 147.396 152.255 147.369 152.235C147.034 151.98 146.723 151.699 146.436 151.391C145.937 150.857 145.513 150.243 145.163 149.551C145.079 149.385 144.999 149.215 144.924 149.041L144.996 149.026L170.369 143.975C170.368 143.854 170.367 143.734 170.364 143.615C170.325 141.741 170.061 140.005 169.572 138.407C169.503 138.181 169.43 137.959 169.352 137.739C169.266 137.497 169.175 137.259 169.079 137.023C169.022 136.885 168.964 136.749 168.903 136.613C168.609 135.951 168.27 135.316 167.887 134.708C166.505 132.421 164.709 130.618 162.497 129.298C162.159 129.096 161.812 128.906 161.454 128.727C160.398 128.181 159.297 127.743 158.151 127.414C156.371 126.903 154.481 126.652 152.483 126.663C151.728 126.667 150.989 126.707 150.266 126.783C147.64 127.057 145.225 127.802 143.023 129.019C142.41 129.353 141.826 129.718 141.269 130.113C141.236 130.136 141.203 130.16 141.17 130.184C140.88 130.393 140.599 130.61 140.325 130.835C138.794 132.095 137.508 133.613 136.466 135.39C135.108 137.731 134.346 140.326 134.181 143.176C134.156 143.608 134.145 144.047 134.147 144.491C134.164 147.565 134.836 150.341 136.165 152.819C136.311 153.093 136.466 153.363 136.629 153.63C138.265 156.309 140.58 158.408 143.575 159.928C143.807 160.043 144.042 160.153 144.28 160.258C144.31 160.272 144.34 160.285 144.369 160.298C145.327 160.718 146.328 161.064 147.372 161.339C147.425 161.353 147.479 161.366 147.532 161.38C148.547 161.638 149.602 161.828 150.698 161.95C151.726 162.064 152.791 162.118 153.891 162.112C153.977 162.112 154.062 162.111 154.147 162.11C156.98 162.071 159.497 161.645 161.7 160.832C161.741 160.817 161.783 160.801 161.824 160.785C162.801 160.416 163.715 159.97 164.567 159.447C164.953 159.21 165.326 158.957 165.686 158.688ZM151.571 134.261C151.454 134.272 151.339 134.285 151.224 134.299C149.965 134.461 148.842 134.855 147.855 135.481C147.543 135.679 147.245 135.9 146.96 136.144C146.949 136.154 146.938 136.164 146.926 136.174C146.743 136.333 146.565 136.502 146.393 136.68C145.508 137.599 144.861 138.714 144.453 140.023C144.449 140.037 144.444 140.052 144.44 140.066C144.132 141.069 143.964 142.184 143.933 143.414L160.684 140.059C160.622 139.827 160.551 139.602 160.473 139.382C160.454 139.329 160.434 139.275 160.414 139.223C159.895 137.858 159.05 136.738 157.879 135.86C157.852 135.84 157.825 135.82 157.798 135.8C157.792 135.795 157.786 135.791 157.78 135.787C157.762 135.773 157.743 135.76 157.724 135.746C157.663 135.702 157.601 135.659 157.538 135.617C156.501 134.921 155.32 134.484 153.996 134.306C153.524 134.243 153.033 134.212 152.524 134.215C152.198 134.217 151.881 134.232 151.571 134.261Z" fill="white"/>
<path fill-rule="evenodd" clip-rule="evenodd" d="M88.3236 117.155L88.5663 161.954L111.734 161.829C112.552 161.825 113.342 161.8 114.104 161.755C114.603 161.725 115.09 161.687 115.565 161.64C118.003 161.4 120.13 160.93 121.944 160.232C121.985 160.216 122.025 160.201 122.065 160.185C123.17 159.75 124.158 159.229 125.029 158.621C126.722 157.432 127.943 155.971 128.693 154.238C128.848 153.881 128.982 153.513 129.096 153.133C129.431 152.023 129.595 150.815 129.587 149.508C129.585 149.137 129.571 148.775 129.543 148.42C129.362 146.122 128.639 144.164 127.374 142.544C125.913 140.632 123.9 139.277 121.336 138.481C122.867 137.67 124.111 136.618 125.069 135.324C125.282 135.037 125.481 134.737 125.666 134.425C125.684 134.395 125.703 134.365 125.721 134.334C126.512 133.024 126.993 131.58 127.164 130.001C127.213 129.543 127.237 129.073 127.234 128.593C127.224 126.7 126.804 125.018 125.976 123.547C125.235 122.231 124.167 121.084 122.772 120.105C121.922 119.499 120.964 118.983 119.898 118.557C119.833 118.531 119.768 118.506 119.703 118.481C118.401 117.98 116.942 117.61 115.325 117.369C113.912 117.159 112.378 117.048 110.723 117.037C110.554 117.036 110.383 117.036 110.211 117.037L88.3236 117.155ZM98.8278 154.091L110.924 154.025C111.186 154.024 111.442 154.018 111.692 154.009C111.942 153.999 112.186 153.985 112.424 153.967C112.549 153.958 112.673 153.947 112.796 153.935C113.832 153.836 114.74 153.653 115.52 153.387C116.037 153.211 116.498 152.998 116.902 152.749C116.956 152.716 117.009 152.682 117.06 152.648C118.051 152.01 118.69 151.129 118.976 150.005C118.979 149.992 118.982 149.978 118.986 149.965C119.018 149.835 119.045 149.702 119.068 149.565C119.099 149.377 119.121 149.183 119.135 148.982C119.138 148.933 119.141 148.883 119.143 148.833C119.148 148.716 119.15 148.597 119.15 148.477C119.146 147.761 119.04 147.114 118.832 146.538C118.323 145.124 117.201 144.129 115.467 143.552C115.102 143.43 114.711 143.327 114.292 143.243C114.267 143.238 114.241 143.233 114.215 143.227C113.444 143.077 112.583 142.989 111.632 142.962C111.382 142.955 111.126 142.952 110.864 142.953L98.7678 143.019L98.8278 154.091ZM98.7269 135.467L109.031 135.411C109.476 135.409 109.903 135.393 110.311 135.364C110.485 135.351 110.655 135.336 110.822 135.319C111.087 135.291 111.343 135.257 111.59 135.218C111.711 135.198 111.829 135.177 111.946 135.155C111.987 135.147 112.027 135.139 112.067 135.131C112.129 135.118 112.19 135.106 112.25 135.092C113.288 134.863 114.154 134.511 114.847 134.036C115.052 133.896 115.24 133.745 115.413 133.585C116.352 132.711 116.818 131.535 116.81 130.057C116.81 130.015 116.809 129.974 116.808 129.932C116.801 129.654 116.778 129.388 116.737 129.134C116.724 129.049 116.708 128.965 116.691 128.883C116.685 128.854 116.678 128.824 116.671 128.795C116.664 128.763 116.656 128.732 116.649 128.7C116.644 128.683 116.64 128.667 116.636 128.65C116.418 127.824 115.998 127.138 115.375 126.59C115.204 126.44 115.018 126.3 114.816 126.171C114.812 126.168 114.808 126.166 114.805 126.164C113.807 125.496 112.461 125.082 110.766 124.924C110.599 124.909 110.428 124.896 110.254 124.885C110.24 124.884 110.226 124.883 110.212 124.883C109.987 124.869 109.755 124.86 109.519 124.855C109.34 124.852 109.158 124.85 108.974 124.851L98.6697 124.907L98.7269 135.467ZM140.754 130.494C139.033 131.817 137.603 133.449 136.465 135.391C136.447 135.421 136.43 135.451 136.413 135.481C136.361 135.572 136.31 135.663 136.26 135.754C135.566 137.021 135.043 138.361 134.69 139.774C134.674 139.838 134.658 139.903 134.643 139.968C134.303 141.402 134.137 142.909 134.146 144.491C134.153 145.85 134.289 147.151 134.552 148.393C134.63 148.76 134.719 149.123 134.82 149.48C135.023 150.203 135.272 150.906 135.568 151.588C135.872 152.291 136.225 152.971 136.627 153.63C137.653 155.31 138.947 156.763 140.507 157.987C141.435 158.715 142.457 159.362 143.574 159.928C143.725 160.003 143.877 160.076 144.031 160.146C146.917 161.477 150.203 162.133 153.89 162.113C154.118 162.111 154.344 162.108 154.568 162.101C152.113 169.38 147.429 175.881 140.549 180.714L140.485 180.759C131.039 187.354 120.239 188.783 111.88 188.829L88.7125 188.954C73.801 189.035 61.6474 177.012 61.5667 162.101L61.5112 151.861L63.3767 151.851L62.1522 162.098L69.384 162.058L70.6086 151.812L79.7604 151.762L79.7226 144.786L71.4028 144.831L72.6266 134.456L81.8424 134.406L81.7407 127.431L73.4208 127.476L74.6453 117.229L67.4774 117.268L66.2529 127.515L61.3795 127.541L61.324 117.301C61.2432 102.39 73.2659 90.2363 88.1773 90.1555L110.065 90.0369C118.364 89.992 128.999 91.4232 138.362 98.0602C147.897 104.787 153.615 115.054 154.187 126.72C153.628 126.679 153.059 126.661 152.482 126.664C151.417 126.669 150.385 126.746 149.385 126.894C148.675 126.998 147.982 127.139 147.305 127.315C147.074 127.375 146.844 127.439 146.617 127.507C145.726 127.775 144.864 128.106 144.031 128.502C143.946 128.542 143.862 128.583 143.777 128.624C143.523 128.75 143.271 128.881 143.022 129.019C142.509 129.299 142.015 129.6 141.542 129.923C141.272 130.106 141.01 130.296 140.754 130.494ZM144.789 139.109C144.258 140.343 143.972 141.778 143.932 143.414L155.695 141.058C155.243 138.952 154.607 136.839 153.761 134.754C153.785 134.598 153.809 134.442 153.832 134.286C153.74 134.275 153.648 134.266 153.556 134.258C153.22 134.228 152.876 134.214 152.522 134.216C150.005 134.229 147.962 135.051 146.392 136.681C145.72 137.378 145.186 138.187 144.789 139.109ZM156.49 146.738L144.923 149.041C144.979 149.171 145.037 149.299 145.098 149.424C145.371 149.985 145.691 150.496 146.059 150.956C146.236 151.178 146.424 151.388 146.623 151.586C147.124 152.086 147.695 152.511 148.335 152.863C149.919 153.707 151.841 154.124 154.102 154.111C154.894 154.107 155.645 154.053 156.353 153.949C156.517 152.435 156.595 150.904 156.587 149.362C156.582 148.495 156.551 147.62 156.49 146.738ZM61.4734 144.885L61.4172 134.517L65.4587 134.495L64.1709 144.87L61.4734 144.885Z" fill="white"/>
<path fill-rule="evenodd" clip-rule="evenodd" d="M48.885 134.585L47.5972 144.96L38.3813 145.01L38.4191 151.986L46.803 151.94L45.5785 162.187L52.7464 162.148L53.9709 151.901L63.3788 151.85L62.1542 162.097L69.3861 162.058L70.6106 151.811L79.7625 151.762L79.7247 144.786L71.4048 144.831L72.6287 134.456L81.8441 134.406L81.7427 127.431L73.4229 127.476L74.6474 117.229L67.4795 117.268L66.255 127.514L56.8471 127.565L58.0716 117.319L50.9037 117.357L49.6792 127.604L40.4634 127.654L40.5011 134.63L48.885 134.585ZM54.7651 144.921L56.0529 134.546L65.4608 134.495L64.173 144.87L54.7651 144.921ZM88.5683 161.954L104.808 161.866C102.489 167.609 98.2505 172.375 92.884 175.365C88.2398 183.558 79.468 189.004 69.5324 189.058L62.3005 189.097C60.7143 189.105 59.1429 188.974 57.6026 188.711C56.0713 188.99 54.4971 189.139 52.8926 189.148L45.7247 189.187C37.9804 189.229 30.5909 185.943 25.4343 180.165C23.3106 177.785 21.6498 175.078 20.4951 172.178C14.9639 167.265 11.4627 160.112 11.4195 152.132L11.3817 145.156C11.3613 141.379 12.1173 137.779 13.5001 134.507L13.4637 127.8C13.4083 117.561 19.0599 108.622 27.435 104C32.0867 95.835 40.8426 90.4116 50.7575 90.3579L57.9254 90.319C59.5116 90.3104 61.083 90.4414 62.6233 90.7049C64.1546 90.4261 65.7287 90.2768 67.3332 90.2681L74.5011 90.2292C82.2455 90.1873 89.6349 93.4728 94.7916 99.2508C96.937 101.655 98.6099 104.394 99.766 107.327C102.738 109.993 105.117 113.309 106.677 117.055L88.3257 117.155L88.5683 161.954ZM98.8299 154.09L106.667 154.048C106.734 153.246 106.767 152.435 106.762 151.615L106.726 144.891C106.991 144.261 107.233 143.62 107.45 142.972L98.7699 143.019L98.8299 154.09ZM108.826 135.412C108.843 134.947 108.848 134.48 108.842 134.012L108.74 127.037C108.729 126.301 108.689 125.573 108.621 124.853L98.6718 124.907L98.729 135.467L108.826 135.412Z" fill="white"/>
<path d="M71.5283 144.942L79.8481 144.897L79.8859 151.873L70.7341 151.923L69.5095 162.169L62.2776 162.209L63.5022 151.962L54.0943 152.013L52.8698 162.259L45.7019 162.298L46.9264 152.052L38.5425 152.097L38.5047 145.121L47.7206 145.071L49.0084 134.696L40.6245 134.741L40.5868 127.766L49.8026 127.716L51.0271 117.469L58.195 117.43L56.9705 127.677L66.3784 127.626L67.6029 117.379L74.7708 117.34L73.5463 127.587L81.8662 127.542L81.9679 134.517L72.7521 134.567L71.5283 144.942ZM64.2964 144.981L65.5842 134.606L56.1763 134.657L54.8885 145.032L64.2964 144.981ZM121.461 138.592C124.025 139.388 126.038 140.743 127.499 142.655C128.96 144.524 129.698 146.846 129.713 149.619C129.734 153.544 128.215 156.582 125.154 158.732C122.136 160.839 117.705 161.908 111.859 161.94L88.6918 162.065L88.4491 117.266L110.337 117.148C115.798 117.118 119.985 118.141 122.898 120.216C125.853 122.29 127.34 125.12 127.36 128.703C127.371 130.879 126.849 132.824 125.791 134.536C124.776 136.248 123.333 137.6 121.461 138.592ZM98.7952 125.018L98.8524 135.578L109.156 135.522C111.716 135.508 113.655 135.05 114.973 134.147C116.291 133.244 116.945 131.917 116.935 130.168C116.926 128.419 116.258 127.121 114.93 126.275C113.603 125.386 111.659 124.948 109.099 124.962L98.7952 125.018ZM111.049 154.136C113.78 154.121 115.825 153.662 117.186 152.759C118.589 151.855 119.285 150.465 119.275 148.588C119.255 144.876 116.493 143.035 110.989 143.064L98.8933 143.13L98.9533 154.202L111.049 154.136ZM154.228 154.222C156.02 154.213 157.597 153.948 158.96 153.429C160.364 152.866 161.661 152.006 162.85 150.848L168.193 156.579C164.97 160.308 160.244 162.19 154.015 162.224C150.132 162.245 146.694 161.517 143.699 160.039C140.704 158.52 138.389 156.42 136.753 153.741C135.117 151.062 134.29 148.016 134.271 144.602C134.253 141.232 135.026 138.198 136.59 135.502C138.197 132.762 140.382 130.638 143.148 129.13C145.955 127.579 149.108 126.794 152.607 126.775C155.892 126.757 158.883 127.445 161.578 128.838C164.274 130.189 166.418 132.183 168.011 134.819C169.646 137.413 170.474 140.502 170.493 144.086L145.048 149.152C145.783 150.855 146.92 152.129 148.461 152.974C150.044 153.818 151.966 154.235 154.228 154.222ZM152.648 134.327C150.131 134.34 148.087 135.162 146.517 136.792C144.947 138.422 144.127 140.666 144.058 143.525L160.808 140.17C160.329 138.381 159.361 136.957 157.905 135.898C156.448 134.839 154.696 134.315 152.648 134.327ZM217.76 116.566L217.926 147.349C217.963 154.09 216.114 159.263 212.378 162.867C208.643 166.514 203.469 168.356 196.856 168.392C193.059 168.412 189.579 167.898 186.416 166.848C183.253 165.841 180.557 164.384 178.328 162.476L182.318 154.774C186.389 158.038 191.134 159.654 196.553 159.625C200.307 159.605 203.075 158.651 204.857 156.764C206.681 154.834 207.583 151.885 207.561 147.917L207.546 145.165C204.58 148.851 200.366 150.708 194.904 150.738C189.23 150.769 184.848 149.192 181.759 146.009C178.712 142.783 177.172 138.14 177.139 132.082L177.056 116.786L187.424 116.73L187.504 131.386C187.522 134.884 188.369 137.525 190.042 139.308C191.716 141.091 194.068 141.974 197.097 141.958C200.297 141.941 202.83 140.988 204.698 139.101C206.565 137.213 207.488 134.371 207.467 130.574L207.392 116.622L217.76 116.566ZM243.935 161.737C240.308 161.756 237.04 161.027 234.131 159.55C231.264 158.029 229.012 155.929 227.377 153.25C225.741 150.571 224.913 147.525 224.895 144.111C224.877 140.698 225.671 137.643 227.277 134.946C228.884 132.25 231.113 130.147 233.963 128.638C236.856 127.086 240.116 126.301 243.743 126.281C247.369 126.261 250.616 127.012 253.483 128.532C256.35 130.01 258.601 132.089 260.237 134.768C261.873 137.447 262.7 140.493 262.718 143.907C262.737 147.32 261.943 150.375 260.336 153.072C258.729 155.768 256.501 157.892 253.65 159.444C250.8 160.953 247.561 161.717 243.935 161.737ZM243.89 153.545C246.45 153.531 248.536 152.666 250.148 150.951C251.803 149.192 252.622 146.863 252.607 143.961C252.591 141.06 251.746 138.761 250.073 137.063C248.442 135.322 246.347 134.459 243.787 134.473C241.227 134.487 239.12 135.373 237.465 137.131C235.811 138.847 234.991 141.155 235.007 144.057C235.023 146.958 235.867 149.279 237.541 151.019C239.214 152.717 241.33 153.558 243.89 153.545ZM309.385 116.069L309.628 160.869L299.58 160.923L299.55 155.483C296.501 159.638 291.989 161.732 286.016 161.765C280.725 161.793 276.578 160.152 273.573 156.84C270.611 153.485 269.113 148.715 269.08 142.528L268.937 116.288L279.305 116.232L279.446 142.152C279.465 145.736 280.312 148.441 281.986 150.266C283.702 152.049 286.011 152.932 288.912 152.917C292.027 152.9 294.518 151.926 296.384 149.996C298.251 148.023 299.174 145.138 299.154 141.341L299.017 116.125L309.385 116.069ZM340.285 125.758C344.552 125.735 347.993 126.996 350.61 129.542C353.269 132.088 354.612 135.878 354.64 140.913L354.746 160.624L344.762 160.678L344.664 142.503C344.649 139.772 344.041 137.749 342.839 136.432C341.637 135.074 339.905 134.4 337.644 134.413C335.127 134.426 333.126 135.226 331.641 136.813C330.156 138.357 329.422 140.665 329.438 143.737L329.531 160.761L319.547 160.815L319.36 126.383L328.896 126.332L328.918 130.364C330.233 128.906 331.869 127.788 333.828 127.009C335.786 126.188 337.939 125.771 340.285 125.758ZM363.61 126.144L373.594 126.09L373.78 160.521L363.796 160.575L363.61 126.144ZM368.576 121.317C366.741 121.327 365.245 120.801 364.087 119.741C362.929 118.681 362.346 117.361 362.338 115.782C362.329 114.204 362.898 112.878 364.044 111.805C365.19 110.732 366.681 110.191 368.515 110.181C370.35 110.171 371.846 110.675 373.004 111.693C374.161 112.71 374.744 113.987 374.752 115.523C374.761 117.187 374.193 118.577 373.047 119.693C371.901 120.765 370.41 121.307 368.576 121.317ZM417.803 125.85L418.057 172.697L408.073 172.752L407.986 156.688C405.526 159.475 402.099 160.88 397.704 160.904C394.462 160.921 391.514 160.212 388.861 158.775C386.25 157.339 384.191 155.281 382.683 152.601C381.175 149.921 380.412 146.81 380.393 143.269C380.374 139.728 381.103 136.609 382.582 133.913C384.061 131.217 386.098 129.137 388.692 127.672C391.33 126.207 394.27 125.466 397.512 125.448C402.206 125.423 405.798 126.897 408.289 129.87L408.267 125.902L417.803 125.85ZM399.388 152.702C401.905 152.689 403.991 151.824 405.646 150.108C407.301 148.35 408.12 146.02 408.104 143.119C408.089 140.218 407.244 137.918 405.571 136.221C403.897 134.48 401.802 133.617 399.285 133.631C396.725 133.644 394.618 134.531 392.963 136.289C391.308 138.005 390.489 140.313 390.505 143.214C390.52 146.116 391.365 148.436 393.038 150.177C394.712 151.874 396.828 152.716 399.388 152.702ZM461.734 125.612L461.92 160.044L452.448 160.095L452.426 155.999C451.112 157.5 449.539 158.66 447.709 159.481C445.879 160.259 443.897 160.653 441.763 160.665C437.241 160.689 433.65 159.407 430.99 156.819C428.331 154.231 426.987 150.377 426.96 145.257L426.854 125.801L436.838 125.747L436.936 143.731C436.966 149.277 439.306 152.038 443.957 152.013C446.346 152 448.262 151.222 449.704 149.678C451.146 148.091 451.859 145.762 451.842 142.69L451.75 125.666L461.734 125.612ZM488.473 152.412C490.265 152.402 491.842 152.138 493.205 151.618C494.61 151.056 495.906 150.195 497.095 149.037L502.438 154.768C499.215 158.498 494.489 160.379 488.26 160.413C484.378 160.434 480.939 159.706 477.944 158.229C474.949 156.709 472.634 154.61 470.998 151.93C469.362 149.251 468.535 146.205 468.516 142.792C468.498 139.421 469.271 136.388 470.835 133.691C472.442 130.952 474.628 128.828 477.393 127.319C480.2 125.768 483.353 124.983 486.852 124.964C490.137 124.946 493.128 125.634 495.823 127.028C498.519 128.378 500.663 130.372 502.256 133.009C503.891 135.603 504.719 138.692 504.738 142.276L479.293 147.341C480.028 149.044 481.165 150.318 482.706 151.163C484.289 152.008 486.212 152.424 488.473 152.412ZM486.893 132.516C484.376 132.53 482.332 133.351 480.762 134.981C479.192 136.611 478.373 138.856 478.303 141.715L495.053 138.36C494.574 136.57 493.606 135.146 492.15 134.088C490.693 133.029 488.941 132.505 486.893 132.516Z" fill="#FE5003"/>
<path d="M510.021 114.982L521.925 114.918L520.1 144.176L512.164 144.219L510.021 114.982ZM516.219 160.262C514.469 160.271 512.994 159.724 511.794 158.622C510.636 157.476 510.052 156.092 510.043 154.471C510.034 152.85 510.603 151.503 511.749 150.43C512.895 149.314 514.364 148.751 516.156 148.742C517.948 148.732 519.423 149.279 520.581 150.382C521.739 151.442 522.322 152.783 522.331 154.404C522.34 156.026 521.75 157.416 520.562 158.574C519.416 159.69 517.968 160.252 516.219 160.262Z" fill="black"/>
</svg>
