<svg width="23" height="18" viewBox="0 0 23 18" fill="none" xmlns="http://www.w3.org/2000/svg">
<path d="M2.3 17.7342C1.6675 17.7342 1.12604 17.5172 0.675625 17.083C0.225208 16.6489 0 16.1271 0 15.5174V2.21678C0 1.60716 0.225208 1.0853 0.675625 0.651179C1.12604 0.217059 1.6675 0 2.3 0H20.7C21.3325 0 21.874 0.217059 22.3244 0.651179C22.7748 1.0853 23 1.60716 23 2.21678V15.5174C23 16.1271 22.7748 16.6489 22.3244 17.083C21.874 17.5172 21.3325 17.7342 20.7 17.7342H2.3ZM11.5 9.9755L2.3 4.43356V15.5174H20.7V4.43356L11.5 9.9755ZM11.5 7.75872L20.7 2.21678H2.3L11.5 7.75872ZM2.3 4.43356V2.21678V15.5174V4.43356Z" fill="white"/>
</svg>
