<svg width="35" height="35" viewBox="0 0 35 35" fill="none" xmlns="http://www.w3.org/2000/svg">
<rect width="35" height="35" rx="6" fill="white"/>
<path d="M22 8H12C9.23858 8 7 10.2386 7 13V23C7 25.7614 9.23858 28 12 28H22C24.7614 28 27 25.7614 27 23V13C27 10.2386 24.7614 8 22 8Z" stroke="#6C35EA" stroke-width="2" stroke-linecap="round" stroke-linejoin="round"/>
<path d="M21.0002 17.3698C21.1236 18.2021 20.9815 19.052 20.594 19.7988C20.2065 20.5456 19.5933 21.1512 18.8418 21.5295C18.0903 21.9077 17.2386 22.0394 16.408 21.9057C15.5773 21.7721 14.81 21.3799 14.215 20.785C13.6201 20.1901 13.2279 19.4227 13.0943 18.592C12.9606 17.7614 13.0923 16.9097 13.4705 16.1582C13.8488 15.4067 14.4544 14.7936 15.2012 14.4061C15.948 14.0186 16.7979 13.8764 17.6302 13.9998C18.4791 14.1257 19.265 14.5213 19.8719 15.1281C20.4787 15.735 20.8743 16.5209 21.0002 17.3698Z" stroke="#6C35EA" stroke-width="2" stroke-linecap="round" stroke-linejoin="round"/>
<path d="M22.5 12.5H22.51" stroke="#6C35EA" stroke-width="2" stroke-linecap="round" stroke-linejoin="round"/>
</svg>
