<svg width="454" height="530" viewBox="0 0 454 530" fill="none" xmlns="http://www.w3.org/2000/svg">
<rect width="393" height="410" fill="#C396FE"/>
<path d="M292.388 286.287C320.029 275.4 329.19 226.307 358.764 229.114C384.031 231.512 380.55 273.544 392.734 295.81C402.75 314.115 418.705 328.559 424.197 348.69C430.123 370.416 449.636 391.964 437.744 411.087C425.677 430.493 383.071 430.979 364.632 444.477C346.934 457.432 343.915 474.888 321.983 474.985C298.784 475.088 292.208 453.559 270.689 444.891C249 436.155 216.537 467.249 178.714 444.891C158.943 433.204 158.37 415.09 73.8409 409.654C73.548 390.714 195.227 341.43 199.875 323.067C204.664 304.146 217.198 284.944 235.333 277.734C253.513 270.507 274.186 293.458 292.388 286.287Z" fill="#C396FE"/>
</svg>
