<svg width="1439" height="657" viewBox="0 0 1439 657" fill="none" xmlns="http://www.w3.org/2000/svg">
<rect x="-26" width="1439" height="449" fill="#C396FE"/>
<path d="M1206.45 233.159C1254.68 214.16 1270.67 128.496 1322.27 133.393C1366.36 137.577 1360.29 210.921 1381.55 249.775C1399.03 281.717 1426.87 306.922 1436.45 342.05C1446.79 379.961 1480.84 417.562 1460.09 450.931C1439.03 484.793 1364.69 485.642 1332.51 509.194C1301.63 531.8 1296.36 562.262 1258.09 562.431C1217.61 562.609 1206.13 525.043 1168.58 509.917C1130.74 494.672 1074.09 548.931 1008.09 509.917C973.592 489.524 972.592 457.916 825.092 448.43C824.58 415.38 1036.91 329.381 1045.02 297.338C1053.37 264.322 1075.24 230.815 1106.89 218.234C1138.61 205.622 1174.69 245.67 1206.45 233.159Z" fill="#C396FE"/>
</svg>
