<svg width="1439" height="657" viewBox="0 0 1439 657" fill="none" xmlns="http://www.w3.org/2000/svg">
<rect width="1439" height="449" fill="#C396FE"/>
<path d="M1232.45 233.159C1280.68 214.16 1296.67 128.496 1348.27 133.393C1392.36 137.577 1386.29 210.921 1407.55 249.775C1425.03 281.717 1452.87 306.922 1462.45 342.05C1472.79 379.961 1506.84 417.562 1486.09 450.931C1465.03 484.793 1390.69 485.642 1358.51 509.194C1327.63 531.8 1322.36 562.262 1284.09 562.431C1243.61 562.609 1232.13 525.043 1194.58 509.917C1156.74 494.672 1100.09 548.931 1034.09 509.917C999.592 489.524 998.592 457.916 851.092 448.43C850.58 415.379 1062.91 329.381 1071.02 297.338C1079.37 264.322 1101.24 230.815 1132.89 218.234C1164.61 205.622 1200.69 245.67 1232.45 233.159Z" fill="#C396FE"/>
</svg>
