<svg width="1437" height="251" viewBox="0 0 1437 251" fill="none" xmlns="http://www.w3.org/2000/svg">
<path fill-rule="evenodd" clip-rule="evenodd" d="M1437 222.069L1403 233.099C1368 243.394 1300 264.718 1231 238.246C1163 211.774 1094 137.506 1026 137.506C957 137.506 889 211.774 820 211.774C752 211.774 683 137.506 615 95.5926C546 52.9436 478 42.649 409 69.1208C341 95.5926 272 158.831 204 190.45C135 222.069 67 222.069 32 222.069L-2 222.069L-2.00002 1.89899e-05L32 1.60175e-05C67 1.29577e-05 135 7.01293e-06 204 9.8076e-07C272 -4.96399e-06 341 -1.09962e-05 409 -1.69409e-05C478 -2.29731e-05 546 -2.89178e-05 615 -3.495e-05C683 -4.08947e-05 752 -4.69269e-05 820 -5.28717e-05C889 -5.89038e-05 957 -6.48486e-05 1026 -7.08808e-05C1094 -7.68255e-05 1163 -8.28577e-05 1231 -8.88024e-05C1300 -9.48346e-05 1368 -0.000100779 1403 -0.000103839L1437 -0.000106812L1437 222.069Z" fill="#B8EB84"/>
</svg>
