<svg width="577" height="275" viewBox="0 0 577 275" fill="none" xmlns="http://www.w3.org/2000/svg">
<path fill-rule="evenodd" clip-rule="evenodd" d="M489.742 96.5437C494.818 91.0522 501.944 87.912 509.422 87.8715L521.326 87.807C528.804 87.7665 535.964 90.8293 541.1 96.2655C546.235 101.702 548.886 109.024 548.42 116.488L546.781 142.751C548.153 146.383 548.857 150.239 548.878 154.147C548.927 163.292 545.254 171.657 538.955 177.797L538.942 177.81C532.3 184.275 523.929 187.106 515.912 187.15C507.892 187.193 499.683 184.463 493.076 178.395C492.831 178.169 492.59 177.939 492.353 177.705C487.425 172.83 484.209 166.656 483.061 159.916C484.561 160.182 486.144 160.311 487.807 160.302C488.571 160.297 489.313 160.266 490.032 160.206C492.002 160.042 493.802 159.67 495.432 159.088C498.056 158.152 500.241 156.675 501.985 154.657L496.642 148.926C496.215 149.341 495.775 149.719 495.32 150.058C494.508 150.663 493.652 151.146 492.752 151.507C491.389 152.026 489.812 152.291 488.02 152.3C487.292 152.304 486.598 152.264 485.94 152.179C484.756 152.026 483.685 151.729 482.729 151.288C482.883 149.598 483.168 147.926 483.58 146.286L504.285 142.164C504.275 140.361 504.061 138.683 503.642 137.13C503.229 135.597 502.616 134.186 501.803 132.897C500.452 130.661 498.705 128.888 496.561 127.577C496.177 127.342 495.78 127.121 495.371 126.916C494.829 126.636 494.276 126.385 493.711 126.162C491.462 125.275 489.025 124.839 486.399 124.853C485.315 124.859 484.263 124.938 483.245 125.091L482.641 116.844C482.094 109.386 484.665 102.035 489.742 96.5437ZM484.359 140.3L483.807 132.761C484.618 132.529 485.496 132.41 486.44 132.405C487.898 132.397 489.206 132.66 490.365 133.194C490.833 133.411 491.277 133.671 491.697 133.976C492.247 134.376 492.728 134.829 493.139 135.334C493.815 136.164 494.302 137.136 494.6 138.249L484.359 140.3ZM511.711 144.108L519.647 144.065L521.472 114.807L509.568 114.871L511.711 144.108ZM520.128 150.27C520.018 150.165 519.905 150.065 519.789 149.97C519.752 149.94 519.715 149.911 519.678 149.882C519.598 149.819 519.516 149.759 519.433 149.701C518.397 148.979 517.154 148.622 515.703 148.63C514.151 148.639 512.841 149.062 511.774 149.9C511.772 149.902 511.769 149.904 511.767 149.905C511.759 149.912 511.751 149.918 511.742 149.925C511.589 150.047 511.44 150.179 511.297 150.318C510.15 151.391 509.582 152.738 509.59 154.36C509.599 155.981 510.183 157.364 511.341 158.51C511.487 158.644 511.637 158.77 511.791 158.888C511.816 158.907 511.841 158.926 511.866 158.944C511.93 158.991 511.994 159.037 512.059 159.081C513.115 159.801 514.351 160.158 515.766 160.15C517.193 160.142 518.419 159.767 519.445 159.023C519.508 158.977 519.57 158.93 519.632 158.881C519.664 158.856 519.695 158.831 519.727 158.805C519.858 158.697 519.985 158.583 520.109 158.463C521.297 157.304 521.887 155.914 521.878 154.293C521.869 152.672 521.286 151.331 520.128 150.27Z" fill="white"/>
<path fill-rule="evenodd" clip-rule="evenodd" d="M461.466 159.932L461.28 125.501L451.296 125.555L451.388 142.579C451.388 142.643 451.388 142.707 451.388 142.771C451.383 143.773 451.3 144.695 451.136 145.537C450.815 147.193 450.186 148.536 449.25 149.566C447.807 151.11 445.892 151.889 443.502 151.902C442.963 151.904 442.454 151.87 441.977 151.798C441.374 148.827 441.079 145.823 441.063 142.827C441.02 135.052 442.854 127.224 447.025 120.033L447.065 119.964L447.091 119.921C451.142 113.013 456.871 107.414 463.945 103.54C471.041 99.6344 478.678 97.8942 486.252 97.8531C493.48 97.814 500.776 99.3489 507.621 102.856C514.83 106.505 520.649 111.968 524.781 118.721C529.432 126.2 531.242 134.33 531.284 142.018C531.305 145.964 530.471 149.746 528.943 153.168C529.315 159.938 527.149 166.829 522.414 172.309C512.808 183.426 499.763 187.237 487.952 187.301C480.56 187.341 472.867 185.943 465.546 182.332C465.454 182.287 465.363 182.241 465.272 182.195C458.135 178.573 451.93 173.145 447.5 165.889C446.37 164.038 445.399 162.141 444.58 160.211C445.505 160.015 446.397 159.734 447.255 159.369C449.085 158.549 450.657 157.388 451.972 155.888L451.994 159.984L461.466 159.932ZM478.917 147.214L478.911 147.216L478.839 147.23C478.914 147.405 478.994 147.575 479.078 147.74C479.428 148.433 479.853 149.046 480.351 149.581C480.638 149.888 480.949 150.169 481.284 150.425C481.311 150.445 481.337 150.464 481.364 150.484C481.643 150.691 481.939 150.88 482.252 151.052C483.479 151.707 484.911 152.104 486.546 152.244C486.94 152.277 487.345 152.296 487.763 152.3C487.847 152.301 487.933 152.301 488.019 152.3C489.811 152.291 491.388 152.026 492.75 151.507C493.807 151.084 494.803 150.492 495.738 149.731C495.831 149.656 495.923 149.578 496.015 149.499C496.071 149.451 496.128 149.401 496.184 149.351C496.338 149.214 496.49 149.072 496.64 148.926L501.984 154.657C501.264 155.489 500.47 156.229 499.601 156.878C499.241 157.146 498.868 157.399 498.482 157.637C497.63 158.16 496.716 158.606 495.739 158.975C495.698 158.991 495.656 159.006 495.615 159.021C493.412 159.835 490.895 160.261 488.062 160.299C487.977 160.3 487.892 160.301 487.806 160.302C486.706 160.308 485.641 160.253 484.613 160.139C483.517 160.017 482.462 159.827 481.447 159.569C481.394 159.556 481.34 159.542 481.287 159.528C480.243 159.254 479.242 158.907 478.284 158.487C478.255 158.474 478.225 158.461 478.195 158.448C477.957 158.342 477.722 158.232 477.49 158.117C474.495 156.598 472.18 154.498 470.544 151.819C470.381 151.553 470.226 151.283 470.08 151.009C468.751 148.53 468.079 145.754 468.062 142.68C468.06 142.236 468.071 141.798 468.096 141.365C468.261 138.516 469.023 135.921 470.381 133.58C471.423 131.802 472.71 130.284 474.24 129.025C474.514 128.799 474.795 128.582 475.085 128.374C475.118 128.35 475.151 128.326 475.184 128.302C475.741 127.907 476.325 127.542 476.939 127.208C479.14 125.992 481.555 125.246 484.181 124.972C484.904 124.897 485.643 124.857 486.398 124.853C488.396 124.842 490.286 125.092 492.066 125.604C493.212 125.933 494.313 126.37 495.369 126.916C495.727 127.095 496.074 127.286 496.413 127.488C498.624 128.807 500.42 130.61 501.802 132.897C502.185 133.505 502.524 134.14 502.818 134.802C502.879 134.938 502.937 135.075 502.994 135.213C503.09 135.448 503.181 135.686 503.267 135.928C503.345 136.148 503.418 136.371 503.487 136.596C503.976 138.194 504.24 139.93 504.279 141.804C504.282 141.923 504.283 142.044 504.284 142.164L478.917 147.214ZM485.486 132.45C485.369 132.461 485.254 132.474 485.139 132.489C483.88 132.65 482.757 133.044 481.77 133.671C481.458 133.868 481.16 134.089 480.875 134.334C480.864 134.343 480.853 134.353 480.841 134.363C480.658 134.522 480.48 134.691 480.308 134.87C479.423 135.789 478.776 136.903 478.368 138.212C478.364 138.227 478.359 138.241 478.355 138.256C478.047 139.258 477.879 140.374 477.848 141.603L494.599 138.249C494.537 138.017 494.466 137.791 494.388 137.572C494.369 137.518 494.349 137.465 494.329 137.412C493.81 136.048 492.965 134.927 491.794 134.049C491.768 134.029 491.74 134.009 491.713 133.989C491.707 133.985 491.701 133.98 491.695 133.976C491.677 133.963 491.658 133.949 491.639 133.936C491.578 133.892 491.516 133.849 491.453 133.807C490.416 133.11 489.235 132.673 487.911 132.496C487.439 132.432 486.948 132.402 486.439 132.405C486.113 132.406 485.796 132.422 485.486 132.45ZM511.71 144.108L519.645 144.065L521.471 114.807L509.567 114.871L511.71 144.108ZM519.138 149.51C518.164 148.916 517.019 148.623 515.702 148.63C513.91 148.64 512.441 149.203 511.295 150.318C510.149 151.391 509.58 152.738 509.589 154.36C509.598 155.981 510.181 157.364 511.34 158.51C511.522 158.677 511.71 158.832 511.904 158.973C512.994 159.766 514.28 160.158 515.765 160.15C517.514 160.141 518.961 159.578 520.107 158.463C521.296 157.304 521.886 155.914 521.877 154.293C521.868 152.672 521.285 151.331 520.127 150.27C519.82 149.978 519.49 149.724 519.138 149.51Z" fill="white"/>
<path fill-rule="evenodd" clip-rule="evenodd" d="M488.319 132.56C487.723 132.453 487.096 132.402 486.439 132.405C483.922 132.419 481.879 133.241 480.309 134.871C479.421 135.792 478.773 136.91 478.365 138.224C478.052 139.234 477.88 140.361 477.849 141.604L488.356 139.499L488.319 132.56ZM488.388 145.33L478.84 147.231C479.574 148.933 480.712 150.207 482.252 151.052C483.836 151.897 485.758 152.313 488.019 152.301C488.156 152.3 488.291 152.298 488.426 152.294L488.388 145.33ZM488.464 160.292C488.247 160.298 488.028 160.301 487.807 160.302C485.95 160.312 484.196 160.151 482.542 159.819C481.301 159.569 480.116 159.223 478.989 158.78C478.478 158.579 477.978 158.359 477.491 158.118C476.894 157.815 476.324 157.49 475.781 157.141C475.123 156.717 474.504 156.26 473.925 155.769C472.586 154.634 471.459 153.317 470.544 151.82C468.909 149.14 468.081 146.094 468.063 142.681C468.063 142.617 468.062 142.553 468.063 142.489C468.072 139.908 468.548 137.526 469.493 135.343C469.753 134.74 470.05 134.153 470.382 133.58C471.988 130.841 474.174 128.717 476.939 127.209C477.385 126.962 477.839 126.736 478.302 126.528C479.381 126.044 480.507 125.665 481.681 125.391C483.177 125.041 484.749 124.862 486.399 124.853C487.035 124.85 487.66 124.873 488.274 124.922C487.963 110.212 475.901 98.4219 461.134 98.5018L451.15 98.5559C448.564 98.5699 446.064 98.9471 443.7 99.6389C441.328 98.9728 438.825 98.6227 436.238 98.6367L426.254 98.6908C411.469 98.7709 399.524 110.721 399.402 125.459C400.111 125.541 400.791 125.663 401.441 125.826C404.055 126.48 406.186 127.791 407.835 129.759L407.813 125.791L417.349 125.739L417.603 172.587L408.583 172.636C409.53 173.807 410.568 174.951 411.705 176.057C420.511 184.627 431.495 187.608 441.456 187.554C444.001 187.54 446.568 187.309 449.126 186.834C450.116 186.938 451.122 186.989 452.141 186.984L461.613 186.933C476.356 186.853 488.275 174.972 488.464 160.292ZM461.467 159.933L461.28 125.501L451.296 125.556L451.389 142.579C451.39 142.908 451.384 143.228 451.369 143.539C451.344 144.053 451.297 144.544 451.227 145.012C450.943 146.912 450.284 148.43 449.25 149.567C448.532 150.336 447.695 150.916 446.741 151.305C445.936 151.633 445.047 151.826 444.074 151.884C444.017 151.887 443.96 151.89 443.903 151.893C443.771 151.898 443.638 151.901 443.503 151.902C442.684 151.907 441.937 151.825 441.262 151.656C439.753 151.281 438.602 150.475 437.808 149.238C437.124 148.174 436.705 146.792 436.55 145.092C436.507 144.625 436.485 144.135 436.482 143.62L436.385 125.636L426.401 125.69L426.506 145.146C426.522 148.072 426.967 150.584 427.843 152.683C428.366 153.939 429.044 155.048 429.876 156.008C430.086 156.251 430.307 156.484 430.537 156.708C431.675 157.816 432.984 158.685 434.463 159.314C435.189 159.622 435.955 159.873 436.763 160.067C438.156 160.401 439.672 160.563 441.31 160.554C442.076 160.55 442.822 160.496 443.549 160.394C444.172 160.305 444.78 160.181 445.375 160.02C446.018 159.846 446.645 159.629 447.255 159.37C449.086 158.549 450.658 157.389 451.973 155.888L451.995 159.984L461.467 159.933ZM407.612 171.383L407.532 156.577C406.006 158.306 404.108 159.503 401.838 160.168C403.097 163.986 404.954 167.8 407.612 171.383ZM400.046 152.527C402.072 152.297 403.788 151.454 405.193 149.998C406.397 148.718 407.159 147.135 407.478 145.249C407.598 144.544 407.655 143.797 407.651 143.008C407.635 140.107 406.791 137.807 405.117 136.11C403.581 134.512 401.69 133.654 399.443 133.534L399.507 145.292C399.519 147.59 399.678 150.025 400.046 152.527Z" fill="white"/>
<path fill-rule="evenodd" clip-rule="evenodd" d="M417.203 98.7398C432.115 98.6591 444.268 110.682 444.349 125.593L444.491 151.85C444.171 151.883 443.842 151.9 443.503 151.902C438.852 151.927 436.512 149.167 436.482 143.62L436.385 125.636L426.401 125.69L426.506 145.146C426.514 146.511 426.614 147.785 426.809 148.97C427.32 152.087 428.478 154.582 430.283 156.454C430.367 156.54 430.451 156.625 430.537 156.708C430.935 157.096 431.355 157.455 431.795 157.784C432.636 158.413 433.554 158.935 434.548 159.349C436.506 160.166 438.76 160.568 441.31 160.554C442.427 160.548 443.503 160.437 444.537 160.221L444.603 172.441C444.684 187.352 432.661 199.506 417.749 199.586L407.766 199.64C397.639 199.695 388.783 194.168 384.118 185.944C381.203 185.085 378.335 183.915 375.553 182.409C375.499 182.379 375.444 182.349 375.39 182.32C368.228 178.378 362.59 172.646 358.699 165.73C356.626 162.046 355.183 158.233 354.26 154.399L354.186 140.802C354.175 138.796 353.955 136.987 353.527 135.376C354.297 130.472 355.862 125.546 358.456 120.818C359.475 118.96 360.619 117.185 361.885 115.505C361.884 115.56 361.884 115.616 361.884 115.672C361.893 117.25 362.476 118.57 363.634 119.63C364.791 120.691 366.287 121.216 368.122 121.206C368.83 121.202 369.486 121.119 370.092 120.957C371.056 120.699 371.889 120.241 372.593 119.582C372.983 119.203 373.306 118.792 373.562 118.349C373.618 118.253 373.67 118.155 373.72 118.055C373.994 117.504 374.171 116.906 374.25 116.262C374.284 115.988 374.3 115.704 374.299 115.412C374.291 113.877 373.708 112.6 372.55 111.582C371.393 110.564 369.896 110.06 368.062 110.07C367.556 110.073 367.077 110.116 366.623 110.2C369.105 107.851 371.891 105.784 374.966 104.049C375.02 104.018 375.074 103.988 375.128 103.958C382.028 100.126 389.481 98.378 396.913 98.3378C399.478 98.3239 402.107 98.5197 404.741 98.9642C405.702 98.8553 406.678 98.7969 407.667 98.7915L417.203 98.7398ZM407.814 125.791L407.835 129.759C407.783 129.697 407.731 129.637 407.679 129.576C406.052 127.71 403.973 126.459 401.441 125.826C401.33 125.798 401.218 125.771 401.105 125.746C400.369 125.58 399.597 125.465 398.787 125.4C398.229 125.355 397.653 125.334 397.059 125.337C395.486 125.346 393.984 125.525 392.554 125.874C391.801 126.058 391.067 126.289 390.353 126.567C389.628 126.849 388.923 127.181 388.239 127.561C387.265 128.111 386.37 128.747 385.554 129.47C385.524 129.496 385.494 129.523 385.465 129.549C385.344 129.658 385.224 129.769 385.107 129.882C383.942 130.999 382.949 132.306 382.129 133.802C380.65 136.498 379.92 139.617 379.939 143.158C379.958 146.7 380.722 149.81 382.23 152.49C383.148 154.123 384.272 155.525 385.6 156.696C385.615 156.71 385.631 156.724 385.647 156.737C385.677 156.764 385.707 156.79 385.737 156.815C386.552 157.517 387.442 158.133 388.407 158.665C389.096 159.037 389.804 159.361 390.533 159.636C392.61 160.42 394.85 160.806 397.251 160.793C397.844 160.79 398.42 160.761 398.979 160.708C399.691 160.639 400.375 160.53 401.03 160.379C403.579 159.793 405.693 158.586 407.371 156.756C407.425 156.697 407.479 156.637 407.532 156.577L407.619 172.641L417.603 172.587L417.349 125.739L407.814 125.791ZM405.863 136.979C405.636 136.674 405.387 136.384 405.117 136.11C404.333 135.294 403.456 134.671 402.486 134.24C401.387 133.753 400.168 133.513 398.831 133.52C398.231 133.523 397.655 133.574 397.104 133.674C396.863 133.717 396.627 133.77 396.395 133.832C395.07 134.186 393.901 134.841 392.889 135.798C392.872 135.814 392.856 135.829 392.84 135.845C392.728 135.952 392.618 136.063 392.51 136.178C392.243 136.455 391.997 136.747 391.774 137.055C391.728 137.118 391.684 137.181 391.64 137.245C391.349 137.671 391.098 138.124 390.887 138.606C390.703 139.027 390.549 139.47 390.426 139.934C390.314 140.354 390.227 140.793 390.165 141.249C390.086 141.837 390.048 142.456 390.051 143.104C390.054 143.616 390.082 144.11 390.137 144.586C390.205 145.178 390.312 145.743 390.46 146.279C390.587 146.739 390.743 147.178 390.928 147.596C391.148 148.093 391.41 148.561 391.713 149C391.757 149.063 391.802 149.127 391.847 149.189C392.072 149.496 392.318 149.788 392.585 150.066C392.688 150.17 392.792 150.271 392.898 150.369C392.915 150.384 392.931 150.399 392.948 150.414C393.954 151.328 395.111 151.955 396.416 152.293C396.673 152.36 396.937 152.416 397.206 152.46C397.758 152.551 398.334 152.595 398.935 152.592C400.161 152.585 401.286 152.376 402.307 151.965C403.383 151.533 404.344 150.877 405.193 149.998C405.457 149.717 405.699 149.422 405.92 149.113C405.966 149.05 406.01 148.986 406.053 148.922C407.131 147.324 407.664 145.353 407.651 143.008C407.638 140.671 407.087 138.724 405.999 137.167C405.954 137.104 405.909 137.041 405.863 136.979ZM373.327 160.41L373.14 125.979L363.156 126.033L363.343 160.465L373.327 160.41Z" fill="white"/>
<path fill-rule="evenodd" clip-rule="evenodd" d="M400.091 124.35C400.912 121.396 401.314 118.34 401.298 115.266C401.247 105.987 397.304 97.3943 390.377 91.3044C383.34 85.1171 375.035 83.0314 367.915 83.07C360.501 83.1102 352.077 85.4876 345.139 91.982C338.467 98.2269 334.835 106.765 334.884 115.817C334.9 118.896 335.342 121.911 336.183 124.792C336.165 125.203 336.155 125.615 336.155 126.03C336.285 126.003 336.415 125.977 336.546 125.952C337.595 125.755 338.69 125.653 339.831 125.647C341.389 125.638 342.837 125.801 344.175 126.135C344.86 126.306 345.516 126.522 346.143 126.783C347.646 127.408 348.984 128.291 350.156 129.431C350.963 130.204 351.65 131.093 352.215 132.096C353.509 134.394 354.166 137.296 354.185 140.801L354.292 160.513L344.308 160.567L344.21 142.391C344.197 140.109 343.77 138.32 342.928 137.026C342.763 136.772 342.582 136.537 342.385 136.321C342.264 136.184 342.137 136.054 342.005 135.931C340.828 134.833 339.223 134.29 337.19 134.301C336.85 134.303 336.521 134.319 336.2 134.35L336.342 160.61C336.423 175.522 348.577 187.544 363.488 187.464L373.472 187.409C388.297 187.329 400.267 175.315 400.325 160.522C399.359 160.696 398.334 160.786 397.25 160.792C395.677 160.801 394.174 160.638 392.739 160.305C391.916 160.113 391.115 159.865 390.337 159.561C389.677 159.303 389.034 159.004 388.406 158.664C385.796 157.228 383.737 155.169 382.229 152.489C381.148 150.568 380.449 148.424 380.133 146.059C380.009 145.127 379.944 144.159 379.938 143.158C379.919 139.616 380.649 136.498 382.128 133.802C382.593 132.953 383.114 132.165 383.691 131.438C383.757 131.354 383.824 131.271 383.892 131.189C385.106 129.72 386.554 128.511 388.238 127.561C388.861 127.214 389.502 126.908 390.159 126.643C390.934 126.33 391.731 126.074 392.553 125.873C393.983 125.524 395.485 125.345 397.058 125.337C397.999 125.332 398.895 125.387 399.747 125.502C399.878 125.52 400.007 125.539 400.136 125.559C400.13 125.154 400.115 124.751 400.091 124.35ZM400.181 133.601C399.745 133.544 399.295 133.517 398.83 133.519C397.619 133.526 396.51 133.728 395.501 134.124C394.378 134.567 393.381 135.251 392.509 136.178C391.865 136.844 391.348 137.601 390.958 138.447C390.879 138.617 390.806 138.79 390.738 138.967C390.63 139.247 390.535 139.536 390.452 139.834C390.366 140.144 390.294 140.463 390.236 140.793C390.108 141.516 390.046 142.286 390.05 143.103C390.055 143.92 390.125 144.691 390.261 145.416C390.607 147.266 391.382 148.815 392.584 150.065C394.257 151.763 396.374 152.605 398.934 152.591C399.398 152.588 399.848 152.557 400.283 152.497L400.181 133.601ZM373.139 125.978L363.155 126.032L363.342 160.464L373.326 160.41L373.139 125.978ZM353.428 100.838C353.288 100.892 353.148 100.947 353.009 101.004L353.428 100.838ZM353.009 101.004C353.104 100.9 353.201 100.799 353.297 100.698C353.45 100.54 353.604 100.385 353.759 100.234L354.103 100.587C353.876 100.668 353.651 100.751 353.428 100.838M364.537 110.975C364.469 111.016 364.403 111.058 364.338 111.101C364.074 111.276 363.825 111.474 363.59 111.694C363.405 111.867 363.235 112.046 363.081 112.232C362.314 113.153 361.916 114.236 361.885 115.479C361.883 115.543 361.883 115.607 361.883 115.671C361.89 116.995 362.302 118.137 363.118 119.097C363.274 119.281 363.446 119.459 363.633 119.63M364.537 110.975C365.521 110.379 366.696 110.077 368.061 110.07C369.436 110.062 370.621 110.343 371.616 110.913C371.948 111.104 372.259 111.326 372.549 111.581C372.736 111.745 372.907 111.916 373.064 112.093C373.88 113.017 374.291 114.123 374.298 115.412C374.298 115.476 374.298 115.54 374.296 115.604C374.268 116.918 373.87 118.057 373.101 119.021C372.947 119.215 372.777 119.401 372.592 119.581C372.299 119.856 371.984 120.095 371.645 120.3C370.661 120.896 369.487 121.198 368.121 121.205C366.835 121.212 365.716 120.956 364.762 120.438L363.135 122.288" fill="white"/>
<path fill-rule="evenodd" clip-rule="evenodd" d="M381.292 160.367C381.373 175.278 369.35 187.432 354.439 187.513L344.455 187.567C341.81 187.581 339.253 187.215 336.833 186.519C334.422 187.241 331.868 187.635 329.223 187.649L319.239 187.704C304.328 187.784 292.174 175.762 292.094 160.85L292.092 160.603C294.946 159.59 297.28 157.847 299.097 155.372L299.126 160.812L309.174 160.758L308.931 115.958L298.563 116.014L298.7 141.23C298.72 145.027 297.797 147.912 295.931 149.885C294.847 151.006 293.552 151.804 292.047 152.28L291.907 126.419C291.826 111.507 303.849 99.3536 318.76 99.2728L328.296 99.2212C329.421 99.2151 330.53 99.2779 331.62 99.4056C334.327 98.901 337.028 98.6619 339.685 98.6475C349.718 98.5931 360.374 101.745 368.907 110.004C368.945 110.041 368.984 110.078 369.021 110.115C369 110.113 368.979 110.11 368.957 110.108C368.864 110.1 368.77 110.092 368.675 110.087C368.475 110.074 368.271 110.069 368.062 110.07C366.227 110.08 364.737 110.621 363.59 111.694C362.444 112.767 361.875 114.093 361.884 115.671C361.886 116.142 361.94 116.589 362.044 117.013C362.057 117.066 362.071 117.118 362.086 117.171C362.222 117.656 362.426 118.11 362.699 118.533C362.944 118.914 363.245 119.27 363.602 119.601C363.612 119.611 363.623 119.62 363.633 119.63C364.791 120.69 366.287 121.216 368.122 121.206C369.957 121.196 371.447 120.654 372.593 119.582C373.512 118.687 374.059 117.617 374.236 116.371C378.545 122.835 380.419 129.93 380.987 136.378C380.523 137.719 380.213 139.147 380.057 140.661C379.974 141.469 379.934 142.301 379.939 143.158C379.953 145.814 380.387 148.228 381.238 150.399L381.292 160.367ZM363.156 126.033L363.343 160.464L373.326 160.41L373.14 125.979L363.156 126.033ZM328.443 126.221L318.907 126.272L319.093 160.704L329.077 160.65L328.985 143.626C328.983 143.229 328.993 142.845 329.016 142.474C329.049 141.935 329.109 141.422 329.195 140.937C329.509 139.169 330.173 137.757 331.187 136.702C331.9 135.94 332.733 135.359 333.684 134.96C334.483 134.625 335.365 134.418 336.332 134.338C336.384 134.334 336.437 134.33 336.49 134.327C336.719 134.311 336.952 134.303 337.19 134.302C338.191 134.296 339.088 134.425 339.881 134.688C340.88 135.019 341.715 135.564 342.385 136.321C342.557 136.509 342.716 136.711 342.863 136.927C342.879 136.951 342.895 136.975 342.911 136.999C343.565 137.991 343.972 139.277 344.132 140.856C344.181 141.34 344.207 141.852 344.21 142.392L344.309 160.567L354.293 160.513L354.186 140.802C354.171 137.985 353.744 135.558 352.905 133.52C352.376 132.236 351.683 131.106 350.827 130.132C350.616 129.892 350.396 129.661 350.165 129.44C350.162 129.437 350.159 129.434 350.156 129.431C350.12 129.396 350.083 129.361 350.047 129.326C348.84 128.178 347.461 127.299 345.909 126.688C345.353 126.47 344.776 126.285 344.175 126.136C342.837 125.801 341.39 125.639 339.832 125.647C338.906 125.652 338.01 125.72 337.145 125.851C336.587 125.935 336.042 126.046 335.509 126.183C334.773 126.371 334.062 126.61 333.374 126.898C331.416 127.677 329.779 128.795 328.464 130.253L328.443 126.221Z" fill="white"/>
<path fill-rule="evenodd" clip-rule="evenodd" d="M308.784 88.9585C323.696 88.8777 335.85 100.9 335.93 115.812L335.986 126.068C335.08 126.271 334.209 126.548 333.374 126.898C331.415 127.676 329.779 128.795 328.464 130.253L328.442 126.221L318.906 126.272L319.093 160.704L329.077 160.65L328.984 143.626C328.968 140.554 329.702 138.246 331.187 136.702C332.436 135.367 334.051 134.589 336.031 134.367L336.173 160.611C336.254 175.523 324.231 187.676 309.32 187.757L299.272 187.811C298.039 187.818 296.825 187.742 295.635 187.588C292.36 188.292 289.026 188.635 285.708 188.653C274.287 188.715 262.228 184.908 253.122 174.871C253.069 174.812 253.016 174.753 252.963 174.693C252.935 174.662 252.907 174.631 252.88 174.6C249.286 170.529 246.749 166.095 245.006 161.572C248.022 161.373 250.752 160.627 253.196 159.333C253.86 158.972 254.489 158.579 255.085 158.156C257.05 156.761 258.649 155.029 259.882 152.96C261.489 150.264 262.283 147.209 262.264 143.795C262.262 143.341 262.245 142.893 262.214 142.452C262.206 142.345 262.198 142.238 262.189 142.132C261.95 139.384 261.148 136.893 259.783 134.657C258.147 131.977 255.896 129.899 253.029 128.421C252.664 128.227 252.292 128.046 251.914 127.877C249.328 126.722 246.453 126.153 243.289 126.17C242.695 126.173 242.111 126.197 241.537 126.241L241.484 116.323C241.403 101.412 253.426 89.2584 268.337 89.1776L278.705 89.1214C282.183 89.1026 285.511 89.7422 288.571 90.9234C291.618 89.7092 294.938 89.0335 298.417 89.0147L308.784 88.9585ZM242.673 153.411C241.945 149.695 241.645 146.028 241.626 142.563L241.582 134.52C242.14 134.418 242.724 134.365 243.333 134.362C245.893 134.348 247.988 135.211 249.619 136.952C250.88 138.231 251.67 139.852 251.99 141.815C252.01 141.938 252.028 142.062 252.044 142.187C252.058 142.292 252.07 142.399 252.082 142.506C252.126 142.939 252.15 143.387 252.152 143.85C252.155 144.297 252.137 144.73 252.1 145.15C251.896 147.455 251.094 149.352 249.694 150.839C248.082 152.555 245.996 153.42 243.436 153.433C243.177 153.435 242.923 153.427 242.673 153.411ZM268.483 116.177L268.625 142.417C268.627 142.673 268.631 142.926 268.637 143.177C268.768 148.299 269.941 152.413 272.157 155.518C272.458 155.94 272.779 156.344 273.119 156.729C273.308 156.937 273.502 157.14 273.701 157.335C273.762 157.396 273.824 157.456 273.887 157.515C275.564 159.109 277.556 160.243 279.864 160.916C281.587 161.419 283.487 161.665 285.562 161.653C286.586 161.648 287.567 161.582 288.505 161.455C289.491 161.322 290.431 161.121 291.322 160.854C294.528 159.893 297.119 158.066 299.096 155.372L299.125 160.812L309.173 160.757L308.931 115.958L298.563 116.014L298.699 141.23C298.701 141.468 298.698 141.703 298.692 141.934C298.6 145.386 297.68 148.036 295.93 149.885C295.302 150.535 294.603 151.076 293.833 151.509C292.316 152.362 290.524 152.794 288.458 152.806C287.397 152.811 286.415 152.697 285.512 152.462C284.218 152.125 283.087 151.541 282.119 150.71C281.916 150.536 281.72 150.351 281.532 150.155C281.388 149.998 281.25 149.835 281.118 149.665C281.089 149.627 281.06 149.589 281.031 149.55C279.734 147.811 279.055 145.415 278.995 142.361C278.993 142.255 278.992 142.148 278.992 142.041L278.851 116.121L268.483 116.177Z" fill="white"/>
<path fill-rule="evenodd" clip-rule="evenodd" d="M240.522 152.348C240.476 152.323 240.428 152.297 240.381 152.27C239.828 151.958 239.193 151.518 238.552 150.926C238.47 150.851 238.39 150.775 238.312 150.698L239.361 148.721L244.651 143.634L247.397 148.677L247.4 148.683L248.466 150.643C248.389 150.72 248.31 150.798 248.229 150.874C247.538 151.526 246.853 151.997 246.271 152.319C246.249 152.332 246.227 152.343 246.205 152.355C246.184 152.367 246.162 152.378 246.14 152.389C245.555 152.689 244.974 152.896 244.45 153.022C243.899 153.155 243.536 153.169 243.435 153.169C243.336 153.17 242.952 153.16 242.364 153.024C241.842 152.904 241.258 152.706 240.659 152.416C240.614 152.394 240.568 152.372 240.522 152.348ZM248.551 150.557L244.807 143.483L249.75 138.731C249.826 138.843 249.898 138.956 249.967 139.068C250.202 139.455 250.412 139.856 250.595 140.266C250.815 140.759 250.995 141.264 251.132 141.769C251.379 142.681 251.438 143.409 251.441 143.854C251.443 144.299 251.392 145.028 251.154 145.942C251.023 146.448 250.848 146.955 250.634 147.45C250.456 147.862 250.25 148.266 250.018 148.655C249.943 148.781 249.864 148.908 249.78 149.035C249.74 149.095 249.699 149.156 249.657 149.216C249.444 149.523 249.206 149.831 248.943 150.132C248.943 150.132 248.943 150.132 248.943 150.132C248.818 150.275 248.687 150.417 248.551 150.557ZM249.035 151.471C249.008 151.494 248.982 151.517 248.954 151.539C247.46 152.79 245.621 153.422 243.436 153.433C241.246 153.445 239.38 152.831 237.839 151.59C237.798 151.556 237.756 151.522 237.715 151.487C237.499 151.307 237.289 151.114 237.087 150.908C236.82 150.63 236.574 150.338 236.349 150.031C236.255 149.903 236.165 149.772 236.079 149.638C235.757 149.143 235.486 148.611 235.267 148.044C234.799 146.839 234.561 145.472 234.553 143.945C234.545 142.412 234.769 141.044 235.228 139.842C235.467 139.216 235.769 138.634 236.135 138.097C236.137 138.093 236.139 138.09 236.142 138.087C236.4 137.709 236.69 137.353 237.011 137.02C237.223 136.795 237.443 136.584 237.67 136.387C237.682 136.376 237.695 136.365 237.708 136.354C239.244 135.038 241.119 134.374 243.333 134.362C245.521 134.35 247.369 134.978 248.878 136.248C248.905 136.271 248.932 136.293 248.959 136.317C249.187 136.513 249.407 136.725 249.619 136.952C249.889 137.226 250.138 137.515 250.365 137.821C250.411 137.883 250.456 137.946 250.5 138.009C250.875 138.545 251.186 139.126 251.433 139.755C251.905 140.952 252.144 142.317 252.153 143.85C252.161 145.377 251.938 146.746 251.483 147.956C251.24 148.604 250.931 149.207 250.555 149.764C250.512 149.828 250.467 149.892 250.422 149.955C250.201 150.264 249.958 150.559 249.694 150.839C249.483 151.065 249.263 151.275 249.035 151.471ZM256.178 130.487C256.239 130.536 256.299 130.587 256.358 130.637C257.703 131.779 258.844 133.119 259.783 134.657C261.419 137.336 262.246 140.382 262.264 143.795C262.283 147.208 261.489 150.264 259.882 152.96C258.935 154.55 257.771 155.941 256.392 157.133C256.39 157.134 256.389 157.136 256.387 157.137C255.428 157.965 254.364 158.697 253.196 159.333C250.346 160.841 247.107 161.606 243.481 161.625C239.854 161.645 236.586 160.916 233.677 159.438C232.537 158.834 231.495 158.138 230.55 157.351C230.521 157.326 230.492 157.302 230.463 157.277C229.068 156.1 227.888 154.72 226.923 153.139C225.287 150.46 224.459 147.413 224.441 144C224.422 140.587 225.217 137.532 226.823 134.835C227.766 133.252 228.924 131.874 230.295 130.7C230.324 130.676 230.353 130.651 230.382 130.626C231.325 129.831 232.367 129.131 233.509 128.527C236.402 126.975 239.662 126.189 243.289 126.17C246.915 126.15 250.162 126.901 253.029 128.421C254.178 129.013 255.227 129.702 256.178 130.487ZM220.814 104.698C227.962 100.878 235.605 99.211 243.142 99.1701C250.647 99.1295 258.327 100.701 265.539 104.494C272.619 108.174 278.565 113.607 282.827 120.586C287.246 127.824 289.221 135.765 289.264 143.649C289.281 146.704 289.007 149.771 288.413 152.806C285.533 152.812 283.239 151.928 281.532 150.155C280.26 148.768 279.466 146.874 279.149 144.473C279.116 144.222 279.088 143.966 279.065 143.704C279.019 143.172 278.995 142.618 278.992 142.041L278.851 116.121L268.483 116.177L268.626 142.417C268.628 142.872 268.638 143.32 268.657 143.761C268.888 149.298 270.375 153.621 273.119 156.729C273.998 157.698 274.975 158.524 276.05 159.207C278.649 160.858 281.819 161.674 285.562 161.653C285.605 161.653 285.648 161.653 285.691 161.652C284.945 163.391 284.076 165.104 283.077 166.78C278.905 173.783 273.059 179.262 266.105 183.047C266.013 183.097 265.92 183.147 265.827 183.196C258.672 186.983 251.059 188.585 243.627 188.625C236.188 188.665 228.603 187.144 221.451 183.512C221.308 183.439 221.167 183.366 221.026 183.291C214.059 179.596 208.174 174.209 203.929 167.292C207.083 166.393 209.748 164.881 211.924 162.756C212.039 162.645 212.152 162.533 212.264 162.419C212.502 162.176 212.732 161.925 212.954 161.668C215.999 158.138 217.505 153.328 217.472 147.238L217.306 116.454L206.938 116.511L207.013 130.462C207.034 134.26 206.111 137.102 204.244 138.989C202.543 140.708 200.291 141.652 197.485 141.82C197.794 134.703 199.715 127.584 203.628 121.015C207.828 113.966 213.742 108.455 220.814 104.698ZM197.882 150.34C198.29 153.285 198.989 156.209 200.003 159.074C201.842 158.619 203.309 157.812 204.403 156.653C206.227 154.723 207.129 151.774 207.107 147.806L207.092 145.054C204.78 147.927 201.71 149.689 197.882 150.34ZM249.625 138.549C249.412 138.246 249.173 137.944 248.911 137.65C248.905 137.644 248.899 137.637 248.894 137.631C248.767 137.49 248.635 137.35 248.497 137.213C248.469 137.184 248.44 137.156 248.411 137.128C248.359 137.078 248.307 137.028 248.254 136.978C247.555 136.326 246.874 135.875 246.327 135.585L243.474 140.965L244.743 143.361L249.625 138.549ZM244.587 143.515L239.421 148.606L243.338 141.221L244.587 143.515ZM243.126 140.832L238.934 149.087L237.822 150.183C237.559 149.887 237.32 149.586 237.106 149.284C237.018 149.16 236.934 149.035 236.855 148.911C236.815 148.85 236.776 148.788 236.739 148.727C236.503 148.341 236.293 147.939 236.11 147.529C235.891 147.036 235.711 146.531 235.574 146.026C235.326 145.115 235.267 144.387 235.265 143.941C235.262 143.496 235.314 142.768 235.551 141.854C235.683 141.347 235.857 140.84 236.071 140.345C236.25 139.933 236.455 139.529 236.687 139.14C236.752 139.03 236.821 138.92 236.893 138.81C236.896 138.807 236.898 138.803 236.9 138.8C237.14 138.434 237.417 138.067 237.727 137.711C237.73 137.707 237.733 137.704 237.736 137.701C237.863 137.555 237.997 137.411 238.136 137.269C238.15 137.255 238.163 137.242 238.176 137.228C238.242 137.162 238.309 137.097 238.377 137.032C239.069 136.372 239.744 135.914 240.288 135.618L243.126 140.832ZM243.262 140.564L245.903 135.365C245.293 135.055 244.699 134.855 244.188 134.741C243.688 134.629 243.381 134.625 243.334 134.626C243.29 134.626 242.963 134.633 242.429 134.759C241.882 134.888 241.236 135.114 240.566 135.469L243.262 140.564ZM237.831 150.192C237.943 150.319 238.06 150.444 238.182 150.568L238.89 149.174L237.831 150.192Z" fill="white"/>
<path fill-rule="evenodd" clip-rule="evenodd" d="M217.16 89.4553C232.071 89.3745 244.225 101.397 244.306 116.309L244.359 126.187C244.006 126.174 243.65 126.168 243.289 126.17C239.867 126.189 236.771 126.889 234.002 128.272C233.837 128.355 233.673 128.44 233.51 128.527C232.51 129.057 231.586 129.659 230.739 130.334C230.514 130.514 230.294 130.699 230.079 130.89C228.802 132.022 227.717 133.337 226.824 134.836C225.217 137.532 224.423 140.587 224.441 144.001C224.443 144.324 224.452 144.644 224.468 144.961C224.508 145.726 224.589 146.472 224.713 147.199C224.743 147.371 224.774 147.541 224.808 147.711C225.2 149.662 225.905 151.472 226.923 153.139C227.004 153.272 227.086 153.403 227.17 153.533C228.607 155.753 230.485 157.557 232.804 158.947C233.089 159.117 233.38 159.281 233.677 159.439C236.368 160.806 239.366 161.532 242.671 161.618C240.716 168.907 237.004 176.055 230.733 182.128C220.757 191.837 208.186 195.217 196.549 195.28C190.268 195.315 183.875 194.472 177.614 192.415C171.517 190.454 165.58 187.382 160.317 182.877C154.067 177.527 150.773 169.817 150.875 162.002C151.746 162.081 152.641 162.118 153.561 162.113C155.581 162.102 157.442 161.897 159.145 161.498C162.485 160.715 165.218 159.185 167.343 156.909C167.477 156.765 167.609 156.618 167.739 156.468L162.396 150.737C161.498 151.613 160.537 152.318 159.515 152.853C159.185 153.026 158.849 153.181 158.506 153.318C157.334 153.765 156.002 154.023 154.512 154.093C154.27 154.104 154.024 154.11 153.774 154.112C153.225 154.115 152.695 154.092 152.186 154.045C152.489 153.11 152.846 152.186 153.256 151.276C152.76 150.049 152.325 148.814 151.945 147.578L170.039 143.975C170.02 140.391 169.193 137.302 167.557 134.709C167.127 133.996 166.656 133.33 166.145 132.711C165.952 132.478 165.753 132.251 165.549 132.031C165.346 131.813 165.137 131.6 164.923 131.395C163.81 130.328 162.543 129.438 161.125 128.727C160.766 128.542 160.402 128.369 160.033 128.209C157.628 127.163 155.001 126.649 152.153 126.664C151.301 126.669 150.469 126.719 149.657 126.814L149.603 116.822C149.522 101.91 161.545 89.7565 176.456 89.6758L186.824 89.6196C190.351 89.6005 193.723 90.2584 196.818 91.4715C199.9 90.225 203.265 89.5305 206.792 89.5114L217.16 89.4553ZM150.59 142.015C150.123 139.473 149.857 136.958 149.747 134.521C150.506 134.322 151.321 134.221 152.194 134.216C154.242 134.205 155.994 134.729 157.451 135.787C158.575 136.605 159.408 137.639 159.95 138.892C160.11 139.262 160.245 139.651 160.354 140.06L150.59 142.015ZM176.603 116.675L176.685 131.971C176.711 136.748 177.674 140.644 179.573 143.66C179.896 144.172 180.245 144.659 180.622 145.12C180.643 145.146 180.664 145.172 180.685 145.198C180.885 145.438 181.091 145.672 181.305 145.898C181.488 146.087 181.675 146.269 181.867 146.446C182.462 146.996 183.101 147.492 183.784 147.933C184.547 148.426 185.364 148.852 186.236 149.209C186.953 149.504 187.707 149.752 188.497 149.955C189.339 150.171 190.223 150.334 191.148 150.446C191.218 150.455 191.289 150.463 191.359 150.471C192.343 150.581 193.374 150.633 194.451 150.627C194.996 150.624 195.53 150.603 196.051 150.564C196.136 150.557 196.221 150.55 196.306 150.543C196.435 150.531 196.563 150.519 196.69 150.505C197.047 150.467 197.398 150.42 197.743 150.364C197.745 150.364 197.747 150.363 197.749 150.363C198.339 150.267 198.911 150.145 199.465 149.997C199.504 149.986 199.543 149.976 199.581 149.965C201.278 149.498 202.806 148.784 204.165 147.823C204.398 147.658 204.626 147.486 204.849 147.307C205.663 146.653 206.411 145.902 207.093 145.055L207.108 147.807C207.126 151.191 206.473 153.833 205.149 155.735C205.138 155.751 205.127 155.767 205.115 155.783C204.896 156.093 204.659 156.383 204.404 156.653C202.725 158.432 200.17 159.381 196.739 159.502C196.612 159.506 196.484 159.509 196.355 159.512C196.27 159.513 196.185 159.514 196.099 159.514C195.559 159.517 195.025 159.504 194.499 159.474C192.797 159.378 191.166 159.111 189.604 158.673C189.309 158.591 189.016 158.502 188.726 158.407C188.692 158.396 188.658 158.385 188.625 158.374C186.805 157.768 185.085 156.923 183.462 155.837C182.919 155.473 182.386 155.082 181.864 154.663L177.874 162.365C180.103 164.273 182.799 165.731 185.962 166.737C186.255 166.835 186.551 166.927 186.85 167.015C189.241 167.721 191.806 168.131 194.546 168.247C195.073 168.27 195.607 168.281 196.146 168.281C196.232 168.282 196.317 168.281 196.402 168.281C196.531 168.28 196.659 168.279 196.786 168.277C199.984 168.225 202.84 167.744 205.353 166.833C207.652 166.001 209.664 164.809 211.39 163.257C211.392 163.256 211.393 163.255 211.394 163.254C211.574 163.092 211.751 162.926 211.925 162.757C214.512 160.26 216.195 157.01 216.972 153.008C217.05 152.608 217.119 152.2 217.178 151.785C217.361 150.511 217.459 149.166 217.472 147.75C217.473 147.581 217.474 147.41 217.473 147.238L217.306 116.455L206.938 116.511L207.014 130.463C207.015 130.701 207.013 130.936 207.006 131.167C206.915 134.613 205.994 137.221 204.244 138.99C203.519 139.723 202.692 140.315 201.766 140.767C200.308 141.476 198.6 141.837 196.643 141.847C196.514 141.848 196.386 141.847 196.259 141.844C196.173 141.843 196.088 141.84 196.003 141.837C195.787 141.829 195.574 141.815 195.365 141.797C195.361 141.797 195.357 141.797 195.353 141.796C195.027 141.768 194.71 141.727 194.402 141.675C194.363 141.668 194.324 141.661 194.285 141.654C194.178 141.635 194.072 141.614 193.967 141.592C193.506 141.493 193.066 141.367 192.647 141.212C191.827 140.908 191.089 140.496 190.433 139.975C190.135 139.738 189.853 139.479 189.589 139.197C189.403 139 189.228 138.791 189.062 138.572C189.033 138.533 189.004 138.494 188.975 138.455C188.39 137.648 187.938 136.704 187.619 135.621C187.298 134.527 187.112 133.291 187.063 131.915C187.055 131.705 187.051 131.492 187.05 131.275L186.97 116.619L176.603 116.675ZM244.404 134.41L244.472 147.092C244.484 149.163 244.39 151.275 244.17 153.406C243.93 153.423 243.686 153.433 243.437 153.434C240.877 153.448 238.76 152.606 237.087 150.908C236.082 149.863 235.376 148.608 234.969 147.144C234.698 146.17 234.559 145.104 234.553 143.946C234.537 141.045 235.357 138.736 237.012 137.02C238.666 135.262 240.773 134.376 243.333 134.362C243.7 134.36 244.056 134.376 244.404 134.41Z" fill="white"/>
<path fill-rule="evenodd" clip-rule="evenodd" d="M120.237 160.701C120.957 160.486 121.635 160.24 122.271 159.964C123.163 159.576 123.973 159.129 124.701 158.62C125.519 158.046 126.226 157.408 126.824 156.707C128.463 154.784 129.275 152.384 129.26 149.508C129.25 147.641 128.912 145.978 128.246 144.521C128.005 143.993 127.721 143.492 127.394 143.018C127.283 142.857 127.167 142.699 127.046 142.544C125.585 140.631 123.572 139.277 121.008 138.48C122.88 137.489 124.323 136.137 125.338 134.425C126.163 133.089 126.662 131.613 126.836 129.996C126.838 129.977 126.84 129.958 126.842 129.939C126.886 129.516 126.907 129.084 126.907 128.641C126.906 128.625 126.906 128.609 126.906 128.592C126.89 125.617 125.863 123.162 123.824 121.227C123.406 120.831 122.947 120.457 122.444 120.104C120.664 118.836 118.408 117.961 115.676 117.479C119.412 112.505 124.141 108.395 129.701 105.351C136.797 101.445 144.434 99.7047 152.008 99.6637C159.235 99.6245 166.531 101.159 173.376 104.666C180.585 108.314 186.404 113.777 190.536 120.53C194.788 127.368 196.666 134.75 196.989 141.841C196.875 141.844 196.76 141.846 196.644 141.847C193.614 141.863 191.263 140.98 189.589 139.197C187.916 137.414 187.069 134.773 187.05 131.274L186.971 116.619L176.603 116.675L176.686 131.97C176.693 133.253 176.767 134.472 176.909 135.627C176.967 136.099 177.037 136.561 177.117 137.012C177.595 139.689 178.471 141.992 179.743 143.922C179.927 144.202 180.12 144.474 180.321 144.738C180.629 145.143 180.958 145.529 181.305 145.898C182.588 147.219 184.093 148.263 185.82 149.031C188.169 150.075 190.93 150.606 194.102 150.626C194.218 150.627 194.334 150.627 194.451 150.627C195.06 150.623 195.653 150.597 196.231 150.549C195.847 152.078 195.333 153.559 194.698 154.979C194.781 156.478 194.739 157.983 194.572 159.477C193.802 159.436 193.046 159.36 192.304 159.249C188.764 158.719 185.549 157.393 182.66 155.273C182.392 155.076 182.127 154.873 181.865 154.663L177.875 162.364C179.884 164.085 182.273 165.439 185.042 166.426C185.344 166.534 185.651 166.638 185.962 166.737C187.899 167.379 189.954 167.821 192.128 168.063C191.108 170.206 189.789 172.246 188.169 174.12C178.564 185.236 165.519 189.048 153.708 189.112C146.316 189.152 138.623 187.754 131.302 184.143C131.21 184.097 131.119 184.052 131.028 184.005C123.891 180.384 117.686 174.955 113.256 167.7C112.089 165.789 111.093 163.83 110.257 161.835L111.406 161.829C114.836 161.81 117.78 161.434 120.237 160.701ZM107.822 154.04L110.596 154.025C113.326 154.01 115.372 153.551 116.732 152.648C117.121 152.398 117.455 152.11 117.735 151.786C117.784 151.728 117.832 151.67 117.878 151.61C118.514 150.787 118.829 149.742 118.822 148.476C118.815 147.214 118.491 146.168 117.85 145.338C117.636 145.062 117.388 144.81 117.104 144.581C116.952 144.459 116.789 144.343 116.617 144.235C115.237 143.366 113.21 142.938 110.536 142.953L106.838 142.973C106.822 143.528 106.815 144.083 106.818 144.637C106.835 147.778 107.159 150.929 107.822 154.04ZM107.68 135.416L108.703 135.411C111.263 135.397 113.202 134.938 114.52 134.035C115.837 133.132 116.492 131.806 116.482 130.057C116.473 128.307 115.804 127.01 114.477 126.163C113.616 125.587 112.495 125.2 111.116 125.003C109.507 128.383 108.376 131.877 107.68 135.416ZM165.357 158.688C166.226 158.04 167.02 157.3 167.739 156.467L162.396 150.736C162.246 150.883 162.094 151.025 161.94 151.162C161.884 151.212 161.827 151.261 161.771 151.31C161.679 151.389 161.586 151.466 161.493 151.542C160.559 152.302 159.563 152.894 158.506 153.317C157.144 153.837 155.566 154.101 153.774 154.111C153.689 154.111 153.603 154.111 153.518 154.11C153.101 154.107 152.696 154.088 152.302 154.054C150.667 153.915 149.235 153.517 148.008 152.862C147.695 152.691 147.399 152.501 147.119 152.295C147.093 152.275 147.066 152.255 147.04 152.235C146.705 151.98 146.394 151.699 146.107 151.391C145.608 150.857 145.184 150.243 144.833 149.551C144.75 149.385 144.67 149.215 144.595 149.041L144.667 149.026L170.04 143.975C170.039 143.854 170.038 143.734 170.035 143.615C169.996 141.741 169.732 140.005 169.243 138.407C169.174 138.181 169.101 137.959 169.023 137.739C168.937 137.497 168.846 137.259 168.75 137.023C168.693 136.885 168.634 136.749 168.574 136.613C168.28 135.951 167.941 135.316 167.558 134.708C166.176 132.421 164.379 130.618 162.168 129.298C161.83 129.096 161.483 128.906 161.125 128.727C160.069 128.181 158.968 127.743 157.822 127.414C156.042 126.903 154.152 126.652 152.154 126.663C151.399 126.667 150.66 126.707 149.937 126.783C147.31 127.057 144.896 127.802 142.694 129.019C142.081 129.353 141.497 129.718 140.94 130.113C140.907 130.136 140.874 130.16 140.841 130.184C140.551 130.393 140.269 130.61 139.995 130.835C138.465 132.095 137.179 133.613 136.137 135.39C134.779 137.731 134.017 140.326 133.852 143.176C133.827 143.608 133.816 144.047 133.818 144.491C133.835 147.565 134.507 150.341 135.836 152.819C135.982 153.093 136.137 153.363 136.3 153.63C137.935 156.309 140.251 158.408 143.246 159.928C143.478 160.043 143.713 160.153 143.951 160.258C143.981 160.272 144.01 160.285 144.04 160.298C144.998 160.718 145.999 161.064 147.043 161.339C147.096 161.353 147.149 161.366 147.203 161.38C148.218 161.638 149.273 161.828 150.368 161.95C151.397 162.064 152.462 162.118 153.562 162.112C153.647 162.112 153.733 162.111 153.818 162.11C156.65 162.071 159.168 161.645 161.371 160.832C161.412 160.817 161.454 160.801 161.495 160.785C162.472 160.416 163.386 159.97 164.238 159.447C164.624 159.21 164.997 158.957 165.357 158.688ZM151.242 134.261C151.125 134.272 151.01 134.285 150.895 134.299C149.636 134.461 148.513 134.855 147.526 135.481C147.214 135.679 146.916 135.9 146.631 136.144C146.62 136.154 146.609 136.164 146.597 136.174C146.414 136.333 146.236 136.502 146.064 136.68C145.179 137.599 144.532 138.714 144.124 140.023C144.119 140.037 144.115 140.052 144.111 140.066C143.803 141.069 143.634 142.184 143.604 143.414L160.354 140.059C160.292 139.827 160.222 139.602 160.144 139.382C160.125 139.329 160.105 139.275 160.085 139.223C159.565 137.858 158.721 136.738 157.55 135.86C157.523 135.84 157.496 135.82 157.469 135.8C157.463 135.795 157.457 135.791 157.451 135.787C157.433 135.773 157.414 135.76 157.395 135.746C157.334 135.702 157.272 135.659 157.209 135.617C156.172 134.921 154.991 134.484 153.667 134.306C153.195 134.243 152.704 134.212 152.195 134.215C151.869 134.217 151.552 134.232 151.242 134.261Z" fill="white"/>
<path fill-rule="evenodd" clip-rule="evenodd" d="M87.9945 117.155L88.2372 161.954L111.405 161.829C112.222 161.825 113.012 161.8 113.775 161.755C114.274 161.725 114.761 161.687 115.236 161.64C117.674 161.4 119.801 160.93 121.615 160.232C121.656 160.216 121.696 160.201 121.736 160.185C122.841 159.75 123.829 159.229 124.7 158.621C126.393 157.432 127.614 155.971 128.364 154.238C128.518 153.881 128.653 153.513 128.767 153.133C129.102 152.023 129.265 150.815 129.258 149.508C129.256 149.137 129.241 148.775 129.214 148.42C129.033 146.122 128.31 144.164 127.045 142.544C125.584 140.632 123.571 139.277 121.006 138.481C122.538 137.67 123.782 136.618 124.74 135.324C124.953 135.037 125.152 134.737 125.337 134.425C125.355 134.395 125.374 134.365 125.392 134.334C126.183 133.024 126.664 131.58 126.835 130.001C126.884 129.543 126.908 129.073 126.905 128.593C126.895 126.7 126.475 125.018 125.647 123.547C124.906 122.231 123.838 121.084 122.443 120.105C121.593 119.499 120.635 118.983 119.569 118.557C119.504 118.531 119.439 118.506 119.374 118.481C118.072 117.98 116.613 117.61 114.996 117.369C113.583 117.159 112.049 117.048 110.394 117.037C110.225 117.036 110.054 117.036 109.882 117.037L87.9945 117.155ZM98.4987 154.091L110.595 154.025C110.857 154.024 111.113 154.018 111.362 154.009C111.613 153.999 111.857 153.985 112.094 153.967C112.22 153.958 112.344 153.947 112.467 153.935C113.503 153.836 114.411 153.653 115.191 153.387C115.708 153.211 116.169 152.998 116.573 152.749C116.627 152.716 116.679 152.682 116.731 152.648C117.722 152.01 118.361 151.129 118.647 150.005C118.65 149.992 118.653 149.978 118.657 149.965C118.689 149.835 118.716 149.702 118.739 149.565C118.77 149.377 118.792 149.183 118.805 148.982C118.809 148.933 118.812 148.883 118.814 148.833C118.819 148.716 118.821 148.597 118.821 148.477C118.817 147.761 118.711 147.114 118.503 146.538C117.994 145.124 116.872 144.129 115.138 143.552C114.773 143.43 114.382 143.327 113.963 143.243C113.937 143.238 113.912 143.233 113.886 143.227C113.115 143.077 112.254 142.989 111.303 142.962C111.053 142.955 110.797 142.952 110.535 142.953L98.4387 143.019L98.4987 154.091ZM98.3978 135.467L108.702 135.411C109.147 135.409 109.574 135.393 109.981 135.364C110.155 135.351 110.326 135.336 110.493 135.319C110.758 135.291 111.013 135.257 111.261 135.218C111.381 135.198 111.5 135.177 111.617 135.155C111.658 135.147 111.698 135.139 111.738 135.131C111.8 135.118 111.861 135.106 111.921 135.092C112.959 134.863 113.825 134.511 114.518 134.036C114.723 133.896 114.911 133.745 115.084 133.585C116.023 132.711 116.489 131.535 116.481 130.057C116.481 130.015 116.48 129.974 116.479 129.932C116.472 129.654 116.449 129.388 116.408 129.134C116.394 129.049 116.379 128.965 116.362 128.883C116.355 128.854 116.349 128.824 116.342 128.795C116.335 128.763 116.327 128.732 116.319 128.7C116.315 128.683 116.311 128.667 116.307 128.65C116.089 127.824 115.669 127.138 115.046 126.59C114.875 126.44 114.688 126.3 114.487 126.171C114.483 126.168 114.479 126.166 114.476 126.164C113.478 125.496 112.131 125.082 110.437 124.924C110.27 124.909 110.099 124.896 109.925 124.885C109.911 124.884 109.897 124.883 109.883 124.883C109.658 124.869 109.426 124.86 109.19 124.855C109.011 124.852 108.829 124.85 108.644 124.851L98.3406 124.907L98.3978 135.467ZM140.424 130.494C138.704 131.817 137.274 133.449 136.135 135.391C136.118 135.421 136.101 135.451 136.084 135.481C136.032 135.572 135.981 135.663 135.93 135.754C135.237 137.021 134.713 138.361 134.361 139.774C134.345 139.838 134.329 139.903 134.314 139.968C133.974 141.402 133.808 142.909 133.817 144.491C133.824 145.85 133.96 147.151 134.223 148.393C134.301 148.76 134.39 149.123 134.491 149.48C134.694 150.203 134.943 150.906 135.238 151.588C135.543 152.291 135.896 152.971 136.298 153.63C137.324 155.31 138.618 156.763 140.178 157.987C141.106 158.715 142.128 159.362 143.244 159.928C143.396 160.003 143.548 160.076 143.702 160.146C146.588 161.477 149.874 162.133 153.56 162.113C153.788 162.111 154.014 162.108 154.238 162.101C151.784 169.38 147.1 175.881 140.22 180.714L140.156 180.759C130.71 187.354 119.91 188.783 111.551 188.829L88.3834 188.954C73.4719 189.035 61.3183 177.012 61.2376 162.101L61.1821 151.861L63.0476 151.851L61.8231 162.098L69.0549 162.058L70.2795 151.812L79.4313 151.762L79.3935 144.786L71.0737 144.831L72.2975 134.456L81.5133 134.406L81.4116 127.431L73.0917 127.476L74.3162 117.229L67.1483 117.268L65.9238 127.515L61.0504 127.541L60.9949 117.301C60.9141 102.39 72.9368 90.2363 87.8482 90.1555L109.736 90.0369C118.035 89.992 128.67 91.4232 138.033 98.0602C147.568 104.787 153.286 115.054 153.858 126.72C153.298 126.679 152.73 126.661 152.152 126.664C151.088 126.669 150.056 126.746 149.056 126.894C148.346 126.998 147.653 127.139 146.976 127.315C146.744 127.375 146.515 127.439 146.287 127.507C145.397 127.775 144.535 128.106 143.702 128.502C143.617 128.542 143.532 128.583 143.448 128.624C143.194 128.75 142.942 128.881 142.693 129.019C142.18 129.299 141.686 129.6 141.212 129.923C140.943 130.106 140.681 130.296 140.424 130.494ZM144.46 139.109C143.929 140.343 143.643 141.778 143.603 143.414L155.365 141.058C154.913 138.952 154.278 136.839 153.432 134.754C153.456 134.598 153.48 134.442 153.503 134.286C153.411 134.275 153.319 134.266 153.226 134.258C152.891 134.228 152.546 134.214 152.193 134.216C149.676 134.229 147.632 135.051 146.063 136.681C145.391 137.378 144.857 138.187 144.46 139.109ZM156.161 146.738L144.594 149.041C144.65 149.171 144.708 149.299 144.769 149.424C145.042 149.985 145.362 150.496 145.73 150.956C145.907 151.178 146.095 151.388 146.294 151.586C146.795 152.086 147.366 152.511 148.006 152.863C149.59 153.707 151.512 154.124 153.773 154.111C154.565 154.107 155.316 154.053 156.024 153.949C156.188 152.435 156.266 150.904 156.258 149.362C156.253 148.495 156.222 147.62 156.161 146.738ZM61.1443 144.885L61.0881 134.517L65.1296 134.495L63.8418 144.87L61.1443 144.885Z" fill="white"/>
<path fill-rule="evenodd" clip-rule="evenodd" d="M48.5558 134.585L47.268 144.96L38.0521 145.01L38.0899 151.986L46.4738 151.94L45.2493 162.187L52.4172 162.148L53.6417 151.901L63.0495 151.85L61.825 162.097L69.0569 162.058L70.2814 151.811L79.4333 151.762L79.3955 144.786L71.0756 144.831L72.2994 134.456L81.5149 134.406L81.4135 127.431L73.0936 127.476L74.3182 117.229L67.1503 117.268L65.9258 127.514L56.5179 127.565L57.7424 117.319L50.5745 117.357L49.35 127.604L40.1341 127.654L40.1719 134.63L48.5558 134.585ZM54.4359 144.921L55.7237 134.546L65.1315 134.495L63.8437 144.87L54.4359 144.921ZM88.2391 161.954L104.479 161.866C102.16 167.609 97.9212 172.375 92.5548 175.365C87.9106 183.558 79.1388 189.004 69.2032 189.058L61.9713 189.097C60.385 189.105 58.8137 188.974 57.2734 188.711C55.742 188.99 54.1679 189.139 52.5634 189.148L45.3955 189.187C37.6512 189.229 30.2617 185.943 25.105 180.165C22.9814 177.785 21.3206 175.078 20.1659 172.178C14.6347 167.265 11.1335 160.112 11.0903 152.132L11.0525 145.156C11.032 141.379 11.7881 137.779 13.1709 134.507L13.1345 127.8C13.0791 117.561 18.7307 108.622 27.1058 104C31.7575 95.835 40.5134 90.4116 50.4283 90.3579L57.5961 90.319C59.1824 90.3104 60.7537 90.4414 62.2941 90.7049C63.8254 90.4261 65.3995 90.2768 67.004 90.2681L74.1719 90.2292C81.9162 90.1873 89.3057 93.4728 94.4624 99.2508C96.6078 101.655 98.2807 104.394 99.4368 107.327C102.409 109.993 104.788 113.309 106.348 117.055L87.9965 117.155L88.2391 161.954ZM98.5007 154.09L106.338 154.048C106.405 153.246 106.437 152.435 106.433 151.615L106.396 144.891C106.662 144.261 106.904 143.62 107.121 142.972L98.4407 143.019L98.5007 154.09ZM108.497 135.412C108.514 134.947 108.519 134.48 108.512 134.012L108.411 127.037C108.4 126.301 108.36 125.573 108.292 124.853L98.3426 124.907L98.3998 135.467L108.497 135.412Z" fill="white"/>
<path d="M71.1993 144.942L79.5192 144.897L79.5569 151.873L70.4051 151.923L69.1806 162.169L61.9487 162.209L63.1732 151.962L53.7653 152.013L52.5408 162.259L45.3729 162.298L46.5974 152.052L38.2135 152.097L38.1758 145.121L47.3916 145.071L48.6794 134.696L40.2956 134.741L40.2578 127.766L49.4736 127.716L50.6982 117.469L57.8661 117.43L56.6415 127.677L66.0494 127.626L67.2739 117.379L74.4418 117.34L73.2173 127.587L81.5372 127.542L81.639 134.517L72.4231 134.567L71.1993 144.942ZM63.9674 144.981L65.2552 134.606L55.8473 134.657L54.5595 145.032L63.9674 144.981ZM121.132 138.592C123.696 139.388 125.709 140.743 127.17 142.655C128.631 144.524 129.369 146.846 129.384 149.619C129.405 153.544 127.886 156.582 124.825 158.732C121.807 160.839 117.376 161.908 111.53 161.94L88.3628 162.065L88.1201 117.266L110.008 117.148C115.469 117.118 119.656 118.141 122.569 120.216C125.524 122.29 127.011 125.12 127.031 128.703C127.042 130.879 126.52 132.824 125.462 134.536C124.447 136.248 123.004 137.6 121.132 138.592ZM98.4663 125.018L98.5235 135.578L108.827 135.522C111.387 135.508 113.326 135.05 114.644 134.147C115.962 133.244 116.616 131.917 116.606 130.168C116.597 128.419 115.929 127.121 114.601 126.275C113.274 125.386 111.33 124.948 108.77 124.962L98.4663 125.018ZM110.72 154.136C113.451 154.121 115.496 153.662 116.857 152.759C118.26 151.855 118.956 150.465 118.946 148.588C118.926 144.876 116.164 143.035 110.66 143.064L98.5644 143.13L98.6243 154.202L110.72 154.136ZM153.899 154.222C155.691 154.213 157.268 153.948 158.631 153.429C160.035 152.866 161.332 152.006 162.521 150.848L167.864 156.579C164.641 160.308 159.915 162.19 153.686 162.224C149.803 162.245 146.365 161.517 143.37 160.039C140.375 158.52 138.06 156.42 136.424 153.741C134.788 151.062 133.961 148.016 133.942 144.602C133.924 141.232 134.697 138.198 136.261 135.502C137.868 132.762 140.053 130.638 142.819 129.13C145.626 127.579 148.779 126.794 152.278 126.775C155.563 126.757 158.554 127.445 161.249 128.838C163.945 130.189 166.089 132.183 167.682 134.819C169.317 137.413 170.145 140.502 170.164 144.086L144.719 149.152C145.454 150.855 146.591 152.129 148.132 152.974C149.715 153.818 151.637 154.235 153.899 154.222ZM152.319 134.327C149.802 134.34 147.758 135.162 146.188 136.792C144.618 138.422 143.799 140.666 143.729 143.525L160.479 140.17C160 138.381 159.032 136.957 157.576 135.898C156.119 134.839 154.367 134.315 152.319 134.327ZM217.431 116.566L217.597 147.349C217.634 154.09 215.785 159.263 212.049 162.867C208.314 166.514 203.14 168.356 196.527 168.392C192.73 168.412 189.25 167.898 186.087 166.848C182.924 165.841 180.228 164.384 177.999 162.476L181.989 154.774C186.06 158.038 190.805 159.654 196.224 159.625C199.978 159.605 202.746 158.651 204.528 156.764C206.353 154.834 207.254 151.885 207.232 147.917L207.217 145.165C204.251 148.851 200.037 150.708 194.575 150.738C188.901 150.769 184.519 149.192 181.43 146.009C178.383 142.783 176.843 138.14 176.81 132.082L176.727 116.786L187.095 116.73L187.175 131.386C187.193 134.884 188.04 137.525 189.713 139.308C191.387 141.091 193.739 141.974 196.768 141.958C199.968 141.941 202.501 140.988 204.369 139.101C206.236 137.213 207.159 134.371 207.138 130.574L207.063 116.622L217.431 116.566ZM243.606 161.737C239.979 161.756 236.711 161.027 233.802 159.55C230.935 158.029 228.683 155.929 227.048 153.25C225.412 150.571 224.585 147.525 224.566 144.111C224.548 140.698 225.342 137.643 226.948 134.946C228.555 132.25 230.784 130.147 233.634 128.638C236.527 127.086 239.787 126.301 243.414 126.281C247.04 126.261 250.287 127.012 253.154 128.532C256.021 130.01 258.272 132.089 259.908 134.768C261.544 137.447 262.371 140.493 262.389 143.907C262.408 147.32 261.614 150.375 260.007 153.072C258.4 155.768 256.172 157.892 253.321 159.444C250.471 160.953 247.232 161.717 243.606 161.737ZM243.561 153.545C246.121 153.531 248.207 152.666 249.819 150.951C251.474 149.192 252.293 146.863 252.278 143.961C252.262 141.06 251.417 138.761 249.744 137.063C248.113 135.322 246.018 134.459 243.458 134.473C240.898 134.487 238.791 135.373 237.136 137.131C235.482 138.847 234.662 141.155 234.678 144.057C234.694 146.958 235.538 149.279 237.212 151.019C238.885 152.717 241.001 153.558 243.561 153.545ZM309.056 116.069L309.299 160.869L299.251 160.923L299.221 155.483C296.172 159.638 291.66 161.732 285.687 161.765C280.396 161.793 276.249 160.152 273.244 156.84C270.282 153.485 268.784 148.715 268.751 142.528L268.608 116.288L278.976 116.232L279.117 142.152C279.136 145.736 279.983 148.441 281.657 150.266C283.373 152.049 285.682 152.932 288.583 152.917C291.698 152.9 294.189 151.926 296.055 149.996C297.922 148.023 298.845 145.138 298.825 141.341L298.688 116.125L309.056 116.069ZM339.956 125.758C344.223 125.735 347.664 126.996 350.281 129.542C352.94 132.088 354.283 135.878 354.311 140.913L354.417 160.624L344.434 160.678L344.335 142.503C344.32 139.772 343.712 137.749 342.51 136.432C341.308 135.074 339.576 134.4 337.315 134.413C334.798 134.426 332.797 135.226 331.312 136.813C329.827 138.357 329.093 140.665 329.11 143.737L329.202 160.761L319.218 160.815L319.031 126.383L328.567 126.332L328.589 130.364C329.904 128.906 331.54 127.788 333.499 127.009C335.457 126.188 337.61 125.771 339.956 125.758ZM363.281 126.144L373.265 126.09L373.451 160.521L363.467 160.575L363.281 126.144ZM368.247 121.317C366.412 121.327 364.916 120.801 363.758 119.741C362.6 118.681 362.017 117.361 362.009 115.782C362 114.204 362.569 112.878 363.715 111.805C364.861 110.732 366.352 110.191 368.186 110.181C370.021 110.171 371.517 110.675 372.675 111.693C373.832 112.71 374.415 113.987 374.423 115.523C374.432 117.187 373.864 118.577 372.718 119.693C371.572 120.765 370.081 121.307 368.247 121.317ZM417.474 125.85L417.728 172.697L407.744 172.752L407.657 156.688C405.197 159.475 401.77 160.88 397.376 160.904C394.133 160.921 391.185 160.212 388.532 158.775C385.921 157.339 383.862 155.281 382.354 152.601C380.846 149.921 380.083 146.81 380.064 143.269C380.045 139.728 380.774 136.609 382.253 133.913C383.732 131.217 385.769 129.137 388.363 127.672C391.001 126.207 393.941 125.466 397.183 125.448C401.877 125.423 405.469 126.897 407.96 129.87L407.938 125.902L417.474 125.85ZM399.059 152.702C401.576 152.689 403.662 151.824 405.317 150.108C406.972 148.35 407.791 146.02 407.775 143.119C407.76 140.218 406.915 137.918 405.242 136.221C403.568 134.48 401.473 133.617 398.956 133.631C396.396 133.644 394.289 134.531 392.634 136.289C390.979 138.005 390.16 140.313 390.176 143.214C390.191 146.116 391.036 148.436 392.709 150.177C394.383 151.874 396.499 152.716 399.059 152.702ZM461.405 125.612L461.591 160.044L452.119 160.095L452.097 155.999C450.783 157.5 449.21 158.66 447.38 159.481C445.55 160.259 443.568 160.653 441.434 160.665C436.912 160.689 433.321 159.407 430.661 156.819C428.002 154.231 426.658 150.377 426.631 145.257L426.525 125.801L436.509 125.747L436.607 143.731C436.637 149.277 438.977 152.038 443.628 152.013C446.017 152 447.933 151.222 449.375 149.678C450.817 148.091 451.53 145.762 451.513 142.69L451.421 125.666L461.405 125.612ZM488.144 152.412C489.936 152.402 491.513 152.138 492.876 151.618C494.281 151.056 495.577 150.195 496.766 149.037L502.109 154.768C498.886 158.498 494.16 160.379 487.931 160.413C484.049 160.434 480.61 159.706 477.615 158.229C474.62 156.709 472.305 154.61 470.669 151.93C469.033 149.251 468.206 146.205 468.187 142.792C468.169 139.421 468.942 136.388 470.506 133.691C472.113 130.952 474.299 128.828 477.064 127.319C479.871 125.768 483.025 124.983 486.523 124.964C489.808 124.946 492.799 125.634 495.494 127.028C498.19 128.378 500.334 130.372 501.927 133.009C503.562 135.603 504.39 138.692 504.409 142.276L478.964 147.341C479.699 149.044 480.836 150.318 482.377 151.163C483.96 152.008 485.883 152.424 488.144 152.412ZM486.564 132.516C484.047 132.53 482.003 133.351 480.433 134.981C478.863 136.611 478.044 138.856 477.974 141.715L494.724 138.36C494.245 136.57 493.277 135.146 491.821 134.088C490.364 133.029 488.612 132.505 486.564 132.516Z" fill="#FE5003"/>
<path d="M509.692 114.982L521.596 114.918L519.771 144.176L511.835 144.219L509.692 114.982ZM515.89 160.262C514.14 160.271 512.665 159.724 511.465 158.622C510.307 157.476 509.723 156.092 509.714 154.471C509.706 152.85 510.274 151.503 511.42 150.43C512.566 149.314 514.035 148.751 515.827 148.742C517.619 148.732 519.094 149.279 520.252 150.382C521.41 151.442 521.993 152.783 522.002 154.404C522.011 156.026 521.421 157.416 520.233 158.574C519.087 159.69 517.639 160.252 515.89 160.262Z" fill="black"/>
</svg>
